<?xml version="1.0" encoding="UTF-8"?>
<svg version="1.1" xmlns="http://www.w3.org/2000/svg" width="957" height="957">
<path d="M0 0 C1.8759938 -0.01058945 1.8759938 -0.01058945 3.78988647 -0.02139282 C7.8130912 -0.03894099 11.83613995 -0.04608546 15.859375 -0.046875 C16.88777119 -0.04731686 16.88777119 -0.04731686 17.93694305 -0.04776764 C38.6335095 -0.04920506 59.09446361 0.14212701 79.609375 3.203125 C80.29636475 3.3049408 80.98335449 3.40675659 81.69116211 3.51165771 C127.48908063 10.34906096 173.08180841 21.9812753 215.01904297 41.97412109 C217.85301647 43.31872266 220.70129761 44.63001431 223.55078125 45.94140625 C244.55923277 55.70534357 264.36715627 67.32899484 283.609375 80.203125 C284.37056641 80.70666504 285.13175781 81.21020508 285.91601562 81.72900391 C297.34630187 89.30028764 308.12963084 97.36780878 318.609375 106.203125 C319.78614791 107.18526789 320.96322284 108.16704904 322.140625 109.1484375 C328.01719744 114.06631209 333.77875683 119.09789978 339.44140625 124.26171875 C341.3300536 125.95299394 343.25497546 127.55802817 345.234375 129.140625 C346.018125 129.82125 346.801875 130.501875 347.609375 131.203125 C347.609375 131.863125 347.609375 132.523125 347.609375 133.203125 C348.19871826 133.46722168 348.78806152 133.73131836 349.39526367 134.00341797 C351.69384649 135.24889552 353.19877017 136.54864714 355.03515625 138.3984375 C355.66341309 139.02790283 356.29166992 139.65736816 356.93896484 140.3059082 C357.5933252 140.97323975 358.24768555 141.64057129 358.921875 142.328125 C359.59686035 143.01028076 360.2718457 143.69243652 360.96728516 144.39526367 C364.77608865 148.26642327 368.5064656 152.17349699 372.01171875 156.32421875 C373.96939265 158.62651985 376.0087116 160.84683614 378.046875 163.078125 C382.4482785 167.96279071 386.56987174 173.017071 390.609375 178.203125 C391.35703125 179.15574219 392.1046875 180.10835937 392.875 181.08984375 C404.65846491 196.23729783 415.66023647 211.78568539 425.609375 228.203125 C426.05990234 228.94578613 426.51042969 229.68844727 426.97460938 230.45361328 C465.32672416 294.15451635 489.67875124 366.80307816 494.609375 441.203125 C494.69477539 442.4413501 494.78017578 443.6795752 494.86816406 444.95532227 C500.13107317 526.22266512 486.13897579 604.95997899 452.609375 679.203125 C452.06095947 680.42974854 452.06095947 680.42974854 451.50146484 681.68115234 C445.36989519 695.33209548 438.14327556 708.28244086 430.609375 721.203125 C430.09439453 722.09241699 429.57941406 722.98170898 429.04882812 723.89794922 C414.68978156 748.62895832 397.64417718 771.85654751 378.609375 793.203125 C377.81015625 794.10160156 377.0109375 795.00007812 376.1875 795.92578125 C374.71242272 797.57125539 373.23220145 799.21213737 371.74609375 800.84765625 C370.30133367 802.44032596 368.86665881 804.04219356 367.44140625 805.65234375 C363.29724977 810.32460513 359.05527751 814.88070496 354.671875 819.328125 C353.75535156 820.25882813 352.83882812 821.18953125 351.89453125 822.1484375 C349.609375 824.203125 349.609375 824.203125 347.609375 824.203125 C347.279375 825.193125 346.949375 826.183125 346.609375 827.203125 C345.1484375 828.67578125 345.1484375 828.67578125 343.234375 830.265625 C339.84935942 833.13172554 336.55708706 836.07049752 333.296875 839.078125 C327.88989067 843.99692743 322.33642288 848.66223825 316.609375 853.203125 C316.0623291 853.64398437 315.5152832 854.08484375 314.95166016 854.5390625 C296.2191111 869.58745697 275.7311696 883.35377013 254.72216797 895.02832031 C253.20938872 895.8694913 251.70108678 896.71873429 250.19580078 897.57324219 C191.57264548 930.84734168 125.69747383 950.52475664 58.609375 956.203125 C57.14008545 956.34451904 57.14008545 956.34451904 55.64111328 956.48876953 C43.07750515 957.57374666 30.46012993 957.44699901 17.859375 957.453125 C16.6129422 957.45379974 15.3665094 957.45447449 14.08230591 957.45516968 C-5.91016647 957.43801123 -25.56369713 956.8345637 -45.390625 954.203125 C-46.68532715 954.03151855 -47.9800293 953.85991211 -49.31396484 953.68310547 C-96.2611133 947.29031459 -141.12700692 933.254518 -184.390625 914.203125 C-185.18903809 913.85427246 -185.98745117 913.50541992 -186.81005859 913.14599609 C-224.89730992 896.37807732 -263.21107757 871.81664709 -293.83618164 843.48950195 C-296.23635562 841.34120516 -298.7039193 839.35767228 -301.23828125 837.37109375 C-308.15108141 831.74088443 -314.38407697 825.47519804 -320.65332031 819.14624023 C-322.64592258 817.13527861 -324.64651433 815.13253805 -326.6484375 813.13085938 C-332.76973564 806.99276253 -338.82476735 800.85712784 -344.390625 794.203125 C-345.26701135 793.1929526 -346.14456538 792.18379172 -347.0234375 791.17578125 C-354.49907946 782.44638742 -361.51764413 773.41275821 -368.390625 764.203125 C-369.21530273 763.10194336 -369.21530273 763.10194336 -370.05664062 761.97851562 C-377.69107676 751.74245026 -384.65324389 741.25959186 -391.15576172 730.27148438 C-392.27592365 728.39524636 -393.42069366 726.53843148 -394.58203125 724.6875 C-440.3246435 651.30565633 -462.23021325 564.12072787 -461.83745575 478.09674454 C-461.82793048 475.908437 -461.82312065 473.72015355 -461.81890869 471.53182983 C-461.76184959 449.54556726 -461.03833 427.92116906 -457.390625 406.203125 C-457.16843311 404.83648255 -456.94659744 403.46978214 -456.72509766 402.10302734 C-449.84846408 360.21804945 -437.54984948 319.98877228 -420.390625 281.203125 C-419.99278809 280.30368164 -419.59495117 279.40423828 -419.18505859 278.47753906 C-399.91986258 235.43773834 -372.8877393 194.32435164 -340.76953125 159.79296875 C-338.92376412 157.78353754 -337.14684289 155.74862492 -335.375 153.67578125 C-330.72100026 148.34037232 -325.72299073 143.34943533 -320.71850586 138.34570312 C-319.05878902 136.68376312 -317.40728043 135.0139289 -315.75585938 133.34375 C-314.70100886 132.28597143 -313.6456879 131.22866175 -312.58984375 130.171875 C-312.097155 129.67200073 -311.60446625 129.17212646 -311.09684753 128.65710449 C-307.61949623 125.203125 -307.61949623 125.203125 -305.390625 125.203125 C-305.390625 124.543125 -305.390625 123.883125 -305.390625 123.203125 C-303.79728261 121.76762774 -302.13811418 120.40485173 -300.453125 119.078125 C-296.96056952 116.28939248 -293.54886511 113.48480054 -290.265625 110.453125 C-232.77231862 58.89329152 -155.74810358 24.26073207 -80.390625 9.203125 C-79.27316895 8.97931152 -78.15571289 8.75549805 -77.00439453 8.52490234 C-59.89888217 5.16228026 -42.75009686 2.78534253 -25.390625 1.203125 C-24.53897766 1.12020203 -23.68733032 1.03727905 -22.80987549 0.95184326 C-15.19617708 0.25256045 -7.64339291 0.02873036 0 0 Z " fill="#252525" transform="translate(461.390625,-0.203125)"/>
<path d="M0 0 C23.55906449 9.704787 48.19729432 15.44109412 73.39453125 18.93359375 C74.34960571 19.06793823 75.30468018 19.20228271 76.28869629 19.34069824 C78.60884258 19.66675323 80.92926605 19.99065928 83.25 20.3125 C83.36822061 54.25012447 83.29136784 88.18049408 82.84428024 122.11566925 C82.81262668 124.55274626 82.78260048 126.98983866 82.75296021 129.42694092 C82.70547832 133.29540964 82.65319706 137.16378535 82.59712219 141.03213882 C82.57705174 142.45070733 82.55825879 143.86929463 82.54090881 145.28789902 C82.26212271 167.64121021 79.78333607 188.13774821 63.67578125 205.125 C52.28927443 215.39302548 37.82498712 222.13142253 24.48149109 229.43658447 C18.41680024 232.7603987 12.39298556 236.15505834 6.375 239.5625 C5.42496094 240.09915283 4.47492188 240.63580566 3.49609375 241.1887207 C2.17158203 241.93835083 2.17158203 241.93835083 0.8203125 242.703125 C-0.39736816 243.38858398 -0.39736816 243.38858398 -1.63964844 244.08789062 C-3.30111169 245.052016 -4.91507149 246.09801562 -6.5078125 247.171875 C-9.54501812 248.71693431 -11.3696353 248.75706409 -14.75 248.3125 C-17.34872892 247.20378721 -19.67665781 246.06325202 -22.125 244.6875 C-23.20563721 244.09775391 -23.20563721 244.09775391 -24.30810547 243.49609375 C-33.97689251 238.16884914 -43.49066221 232.55809164 -52.99316406 226.94140625 C-55.43758015 225.49709664 -57.8860699 224.06003216 -60.3359375 222.625 C-66.74247129 218.85322468 -72.97486788 215.01816321 -78.75 210.3125 C-79.3275 209.879375 -79.905 209.44625 -80.5 209 C-93.17944458 199.03757926 -98.89087202 184.6665153 -101.75 169.3125 C-102.29760351 164.28578975 -102.42601774 159.30286126 -102.47949219 154.24902344 C-102.50806077 152.8245677 -102.53825852 151.40014388 -102.56993103 149.97575378 C-102.6501669 146.16473287 -102.70801774 142.35368423 -102.76136303 138.54220486 C-102.82142307 134.53335646 -102.9026777 130.52493378 -102.98150635 126.51641846 C-103.12721545 118.94645317 -103.2541883 111.37629766 -103.37422395 103.80588651 C-103.51174288 95.19309959 -103.67088787 86.58075286 -103.83156729 77.96837187 C-104.08070908 64.58688741 -104.31829515 51.20524144 -104.53808594 37.82324219 C-104.57073799 35.84873329 -104.57073799 35.84873329 -104.60404968 33.83433533 C-104.62351151 32.63190689 -104.64297333 31.42947845 -104.6630249 30.19061279 C-104.67995266 29.1458012 -104.69688042 28.10098961 -104.71432114 27.02451706 C-104.74375308 24.78734002 -104.75 22.54987063 -104.75 20.3125 C-104.1737085 20.24780518 -103.59741699 20.18311035 -103.00366211 20.11645508 C-74.00535714 16.78578119 -44.39393026 10.82812267 -17.84619141 -1.74365234 C-11.08671 -4.82906675 -6.5337259 -2.76594396 0 0 Z " fill="#1D1E1F" transform="translate(202.75,364.6875)"/>
<path d="M0 0 C0.86625 0.4125 1.7325 0.825 2.625 1.25 C21.19964956 9.75358429 40.28890302 15.55557258 60.484375 18.70703125 C63.625 19.25 63.625 19.25 65.625 20.25 C65.77300158 47.23182587 65.60334978 74.21139095 65.30661011 101.19158936 C65.26795843 104.72610842 65.23377132 108.26062735 65.20339966 111.79522705 C65.16667569 116.02890997 65.1203496 120.26238654 65.06699944 124.49589157 C65.04861482 126.07180749 65.03340822 127.64776423 65.02163887 129.22374344 C64.90693848 143.98365044 63.43069664 157.19300809 52.625 168.25 C45.58813364 174.25 45.58813364 174.25 41.625 174.25 C41.625 155.77 41.625 137.29 41.625 118.25 C36.345 118.25 31.065 118.25 25.625 118.25 C25.625 140.69 25.625 163.13 25.625 186.25 C16.625 191.25 16.625 191.25 13.625 191.25 C13.625 158.25 13.625 125.25 13.625 91.25 C8.345 91.25 3.065 91.25 -2.375 91.25 C-2.375 128.21 -2.375 165.17 -2.375 203.25 C-10.73885067 201.85602489 -10.73885067 201.85602489 -13.375 199.25 C-14.12847506 195.53574812 -14.00476834 191.8543357 -13.94262695 188.07739258 C-13.94335709 186.92603317 -13.94408722 185.77467377 -13.94483948 184.58842468 C-13.94134913 180.77331843 -13.90241653 176.95942488 -13.86328125 173.14453125 C-13.85395835 170.50323656 -13.84683978 167.86193324 -13.84184265 165.22062683 C-13.82629689 158.97314025 -13.78525921 152.72609071 -13.7350952 146.47879666 C-13.67922395 139.36646957 -13.65172094 132.2541217 -13.62661803 125.14162982 C-13.57434353 110.510861 -13.48638743 95.88043661 -13.375 81.25 C-11.395 81.25 -9.415 81.25 -7.375 81.25 C-7.931875 80.51136719 -8.48875 79.77273438 -9.0625 79.01171875 C-9.825625 77.99722656 -10.58875 76.98273438 -11.375 75.9375 C-11.77855713 75.4014917 -12.18211426 74.8654834 -12.59790039 74.31323242 C-16.05630629 69.70630337 -19.41687765 65.03328792 -22.74609375 60.33203125 C-24.21056752 58.15351559 -24.21056752 58.15351559 -26.375 57.25 C-26.61089844 57.91773438 -26.84679687 58.58546875 -27.08984375 59.2734375 C-28.71253078 63.03175822 -30.78834584 66.39832723 -32.9375 69.875 C-36.06841548 74.85633569 -36.06841548 74.85633569 -38.375 80.25 C-35.405 80.25 -32.435 80.25 -29.375 80.25 C-29.375 115.56 -29.375 150.87 -29.375 187.25 C-34.65449092 186.19410182 -38.70366703 185.33787164 -42.375 181.25 C-43.55525632 177.03411707 -43.3861202 172.91743182 -43.28320312 168.56518555 C-43.28437134 167.2769841 -43.28553955 165.98878265 -43.28674316 164.6615448 C-43.28903578 161.13626288 -43.24205698 157.61316494 -43.1861515 154.08839011 C-43.13608952 150.40228634 -43.13143779 146.71613065 -43.12194824 143.02973938 C-43.09709761 136.05247811 -43.03147018 129.07622142 -42.95115232 122.09940225 C-42.86168615 114.15520242 -42.81773575 106.21095421 -42.77758884 98.2663759 C-42.69400109 81.92699614 -42.55331812 65.58862632 -42.375 49.25 C-39.735 49.25 -37.095 49.25 -34.375 49.25 C-37.7931474 43.94181815 -41.38035615 38.7692461 -45.125 33.6875 C-45.88296875 32.65496094 -46.6409375 31.62242187 -47.421875 30.55859375 C-48.06640625 29.79675781 -48.7109375 29.03492188 -49.375 28.25 C-50.035 28.25 -50.695 28.25 -51.375 28.25 C-52.78359491 30.1248248 -52.78359491 30.1248248 -54.16015625 32.5546875 C-54.69060547 33.44800781 -55.22105469 34.34132813 -55.76757812 35.26171875 C-56.31865234 36.20660156 -56.86972656 37.15148437 -57.4375 38.125 C-57.99244141 39.06214844 -58.54738281 39.99929688 -59.11914062 40.96484375 C-61.85606418 45.54750053 -61.85606418 45.54750053 -64.375 50.25 C-61.735 50.25 -59.095 50.25 -56.375 50.25 C-56.375 89.85 -56.375 129.45 -56.375 170.25 C-64.58589094 166.96564362 -69.59164791 159.10773126 -73.375 151.25 C-77.22095616 139.71213153 -76.53175845 126.7374437 -76.69140625 114.703125 C-76.71217252 113.33390395 -76.73321673 111.96468709 -76.7545166 110.59547424 C-76.80960705 106.97454941 -76.85929399 103.35357101 -76.90742874 99.73254776 C-76.93763902 97.4896791 -76.96941873 95.24683786 -77.00167847 93.0039978 C-77.3491902 68.75216695 -77.51284531 44.5044131 -77.375 20.25 C-75.46654297 19.81300781 -75.46654297 19.81300781 -73.51953125 19.3671875 C-52.23976122 14.43745583 -31.64329549 8.5702557 -11.5 0.03125 C-7.64573341 -1.38575978 -3.88716681 -1.22752636 0 0 Z " fill="#F56B03" transform="translate(197.375,384.75)"/>
<path d="M0 0 C1.18335938 0.00193359 1.18335938 0.00193359 2.390625 0.00390625 C5.34765131 0.54733327 7.19639232 1.8545619 9.75 3.4375 C12.2428614 4.47159627 14.71826122 5.449258 17.25 6.375 C18.3160144 6.76739868 18.3160144 6.76739868 19.40356445 7.16772461 C43.98932483 16.11977386 70.02797413 21.53129854 96.07666016 23.8425293 C101.65705712 24.34455712 101.65705712 24.34455712 102.75 25.4375 C102.85012349 27.06916845 102.87633479 28.70535041 102.8762207 30.34008789 C102.87728317 31.4563707 102.87834564 32.5726535 102.87944031 33.72276306 C102.87410782 35.00147781 102.86877533 36.28019257 102.86328125 37.59765625 C102.86090674 38.60965938 102.86090674 38.60965938 102.85848427 39.64210701 C102.80440201 62.19364441 102.46314073 84.74480182 102.123106 107.29355431 C102.00675077 115.02148377 101.89962202 122.74941893 101.80486506 130.47764438 C101.73635963 136.00138407 101.65716599 141.52491128 101.57033139 147.04839283 C101.51929697 150.31192217 101.47400441 153.5753493 101.43758202 156.8390789 C101.132253 183.54330838 98.9641866 207.13838567 79.890625 227.4140625 C62.45365186 243.73328095 37.41875808 253.97530573 16.52783203 265.22558594 C15.60599121 265.72219727 14.68415039 266.21880859 13.734375 266.73046875 C12.87134766 267.19243652 12.00832031 267.6544043 11.11914062 268.13037109 C9.01544268 269.29104698 6.99076609 270.52976087 4.953125 271.80078125 C1.2647316 273.68546032 -0.17910605 274.1677937 -4.25 273.4375 C-7.90249759 271.92375394 -11.34284565 270.07782746 -14.8125 268.1875 C-15.82683105 267.64609375 -16.84116211 267.1046875 -17.88623047 266.546875 C-26.35485052 261.99727903 -34.72239129 257.27294132 -43.03515625 252.4453125 C-46.60288384 250.37442505 -50.19378915 248.35473061 -53.80859375 246.3671875 C-68.8331027 238.06758207 -80.46153118 229.9187944 -90.25 215.4375 C-90.75273438 214.72722656 -91.25546875 214.01695312 -91.7734375 213.28515625 C-101.05575869 199.53044394 -102.26783248 182.7877132 -102.63891602 166.70849609 C-102.66832275 165.56704132 -102.69772949 164.42558655 -102.72802734 163.24954224 C-102.82388847 159.48676039 -102.91407934 155.72386788 -103.00390625 151.9609375 C-103.0695085 149.31278901 -103.13534262 146.66464708 -103.20140076 144.01651001 C-103.33945304 138.45687302 -103.47424789 132.897164 -103.60717773 127.33740234 C-103.75879842 120.99784797 -103.91583458 114.65844592 -104.07587105 108.31909883 C-104.23158433 102.14430167 -104.38283865 95.96940182 -104.5323925 89.79445267 C-104.59546358 87.20758979 -104.65961235 84.62075291 -104.72497749 82.03394699 C-105.19885761 63.16372533 -105.32819224 44.31217607 -105.25 25.4375 C-104.18423737 25.31945007 -103.11847473 25.20140015 -102.02041626 25.07977295 C-93.42374922 24.12186352 -85.02581228 22.67046363 -76.56030273 20.90161133 C-71.56894707 19.86840119 -66.61826765 19.0240144 -61.5625 18.375 C-56.93006446 17.75806349 -52.78847637 16.82009656 -48.41015625 15.20703125 C-46.12778677 14.39396292 -43.8474862 13.78631103 -41.5 13.1875 C-35.80647551 11.66331285 -30.21982632 9.84802948 -24.625 8 C-23.74231445 7.71157227 -22.85962891 7.42314453 -21.95019531 7.12597656 C-17.65993907 5.69482272 -13.5307125 4.15358847 -9.4296875 2.2421875 C-6.19208036 0.76498901 -3.61534638 -0.08978509 0 0 Z M-13.6875 14.4375 C-29.01924381 20.70024356 -44.58905222 25.55714216 -60.75 29.1875 C-61.56533203 29.3740918 -62.38066406 29.56068359 -63.22070312 29.75292969 C-70.1468842 31.22428089 -77.13616437 32.11012162 -84.15429688 33.00878906 C-85.75600739 33.2156987 -85.75600739 33.2156987 -87.39007568 33.42678833 C-90.00988199 33.76502279 -92.62985674 34.10188748 -95.25 34.4375 C-95.00681868 46.77727624 -94.76333433 59.11704646 -94.51950932 71.45681 C-94.40618031 77.19272091 -94.29293865 82.92863351 -94.17993164 88.66455078 C-94.15826242 89.76333054 -94.13659321 90.86211029 -94.11426735 91.9941864 C-94.07057312 94.21245585 -94.02700331 96.43072776 -93.98355675 98.64900208 C-93.87415264 104.21994247 -93.76194134 109.79080153 -93.64419556 115.36157227 C-93.43331491 125.43652421 -93.23799343 135.51017875 -93.13597584 145.58690643 C-93.09043475 149.94870629 -93.03121818 154.31027388 -92.97082329 158.67189026 C-92.94645023 160.70749462 -92.92869297 162.74319155 -92.91832161 164.77891541 C-92.80184964 187.00628962 -88.91282105 204.66720675 -73.25 221.4375 C-58.40637051 235.62538682 -22.94052934 259.8096572 -2.69921875 262.81640625 C2.27793213 262.26965242 5.70593756 259.94518394 9.9375 257.375 C11.81129238 256.26878522 13.6863573 255.16472393 15.5625 254.0625 C16.56023437 253.47339844 17.55796875 252.88429688 18.5859375 252.27734375 C24.14758244 249.04335021 29.79946565 245.97314739 35.4375 242.875 C70.06529578 223.82904831 70.06529578 223.82904831 89.45703125 190.33203125 C92.47793979 179.7914511 91.93361128 168.18598176 92.06640625 157.328125 C92.08718429 155.85954425 92.10822846 154.39096724 92.1295166 152.9223938 C92.18506831 148.99130044 92.23461717 145.06015397 92.28242874 141.12895966 C92.31259475 138.67980706 92.34441184 136.23068093 92.37667847 133.78155518 C92.8098986 100.66642431 92.86536345 67.55491884 92.75 34.4375 C92.02653381 34.32942017 91.30306763 34.22134033 90.55767822 34.10998535 C87.20981933 33.60789653 83.86272904 33.10084559 80.515625 32.59375 C79.37818848 32.42391602 78.24075195 32.25408203 77.06884766 32.07910156 C61.07114503 29.64590443 45.19303 26.30742433 29.75 21.4375 C28.50992188 21.04691406 27.26984375 20.65632813 25.9921875 20.25390625 C18.97736055 17.99740087 12.16019207 15.46816765 5.43359375 12.453125 C-2.22140525 9.55603659 -6.4282559 11.32814006 -13.6875 14.4375 Z " fill="#EF6905" transform="translate(193.25,350.5625)"/>
<path d="M0 0 C44.9372093 0 44.9372093 0 54 9 C59.9505638 16.96858109 59.89497084 26.46014738 59 36 C57.45655557 42.49128631 54.40484578 46.24010729 49 50 C48.01 50.495 48.01 50.495 47 51 C47.57481806 54.53740159 48.48343566 57.26680486 50.21484375 60.3984375 C50.87323242 61.61273438 50.87323242 61.61273438 51.54492188 62.8515625 C52.4690905 64.52621308 53.39356685 66.20069388 54.31835938 67.875 C54.75857422 68.68710937 55.19878906 69.49921875 55.65234375 70.3359375 C56.05445068 71.06345215 56.45655762 71.7909668 56.87084961 72.54052734 C58 75 58 75 60 82 C55.05 82 50.1 82 45 82 C43.39505797 78.95874024 41.79102201 75.91700837 40.1875 72.875 C39.73568359 72.0190625 39.28386719 71.163125 38.81835938 70.28125 C32 57.3412979 32 57.3412979 32 55 C26.39 55 20.78 55 15 55 C15 63.91 15 72.82 15 82 C10.05 82 5.1 82 0 82 C0 54.94 0 27.88 0 0 Z " fill="#F97805" transform="translate(703,420)"/>
<path d="M0 0 C170.61 0 341.22 0 517 0 C517 2.31 517 4.62 517 7 C346.39 7 175.78 7 0 7 C0 4.69 0 2.38 0 0 Z " fill="#B3B3BA" transform="translate(327,524)"/>
<path d="M0 0 C10 0 10 0 12.796875 1.96875 C15.50873173 5.69995714 17.9237804 9.51931904 20.25 13.5 C24.31089035 20.31755819 28.57457539 26.87079597 33.22265625 33.30078125 C34.88291206 35.82218074 36.00194836 38.16098263 37 41 C41.1299186 37.23830841 43.6518081 33.47831949 46.25 28.5625 C50.48464854 20.79014613 55.11419963 13.38008086 60 6 C60.66128906 4.88753906 61.32257813 3.77507812 62.00390625 2.62890625 C64 0 64 0 66.0703125 -0.62109375 C71.77777778 -0.11111111 71.77777778 -0.11111111 74 1 C74.33 27.73 74.66 54.46 75 82 C70.38 82 65.76 82 61 82 C60.67 66.16 60.34 50.32 60 34 C55.41989144 40.86669364 55.41989144 40.86669364 50.859375 47.74609375 C49.3046875 50.09179688 49.3046875 50.09179688 47.75 52.4375 C47.22148437 53.23865234 46.69296875 54.03980469 46.1484375 54.86523438 C45.38660156 56.01282227 45.38660156 56.01282227 44.609375 57.18359375 C44.15530273 57.86993896 43.70123047 58.55628418 43.23339844 59.26342773 C42 61 42 61 40 63 C37.61547852 62.95043945 37.61547852 62.95043945 35 62 C33.02709961 59.74682617 33.02709961 59.74682617 31.15234375 56.79296875 C30.46462891 55.73142578 29.77691406 54.66988281 29.06835938 53.57617188 C28.35725185 52.4471313 27.64697252 51.3175687 26.9375 50.1875 C25.53405547 47.99085983 24.1266468 45.79674617 22.71484375 43.60546875 C22.09730225 42.62731201 21.47976074 41.64915527 20.84350586 40.64135742 C18.84001111 37.6064794 18.84001111 37.6064794 15 34 C15 49.84 15 65.68 15 82 C10.05 82 5.1 82 0 82 C0 54.94 0 27.88 0 0 Z " fill="#F67204" transform="translate(329,420)"/>
<path d="M0 0 C3.46679688 0.04882812 3.46679688 0.04882812 6.93359375 0.09765625 C9.62853104 5.92823025 11.96895128 11.77283378 13.9921875 17.8671875 C14.26321793 18.6694426 14.53424835 19.47169769 14.81349182 20.29826355 C15.67010264 22.83421047 16.52129881 25.37191788 17.37109375 27.91015625 C20.90482366 38.46470278 24.50223621 48.87789211 28.93359375 59.09765625 C30.23054594 62.23334852 31.49396603 65.38134228 32.74609375 68.53515625 C33.21305664 69.67887695 33.21305664 69.67887695 33.68945312 70.84570312 C33.98271484 71.58755859 34.27597656 72.32941406 34.578125 73.09375 C34.83956299 73.74529053 35.10100098 74.39683105 35.37036133 75.06811523 C35.93359375 77.09765625 35.93359375 77.09765625 35.93359375 82.09765625 C31.31359375 82.09765625 26.69359375 82.09765625 21.93359375 82.09765625 C20.92939738 79.64096155 19.93008874 77.18247272 18.93359375 74.72265625 C18.64742188 74.02398437 18.36125 73.3253125 18.06640625 72.60546875 C15.93359375 67.32421875 15.93359375 67.32421875 15.93359375 65.09765625 C6.36359375 65.42765625 -3.20640625 65.75765625 -13.06640625 66.09765625 C-14.71640625 71.37765625 -16.36640625 76.65765625 -18.06640625 82.09765625 C-23.34640625 82.09765625 -28.62640625 82.09765625 -34.06640625 82.09765625 C-31.61641647 74.50352985 -28.85125049 67.03756076 -26.04272461 59.57080078 C-25.26367057 57.49862795 -24.48809477 55.42517817 -23.71289062 53.3515625 C-20.28838671 44.21512116 -16.72121714 35.14443696 -13.06640625 26.09765625 C-12.39908362 24.43125212 -11.73225102 22.76465144 -11.06640625 21.09765625 C-10.76089844 20.33582031 -10.45539063 19.57398438 -10.140625 18.7890625 C-9.26310842 16.59048459 -8.39199131 14.38962282 -7.5234375 12.1875 C-6.97526042 10.80338542 -6.42708333 9.41927083 -5.87890625 8.03515625 C-5.61658203 7.36677734 -5.35425781 6.69839844 -5.08398438 6.00976562 C-2.75034872 0.12997867 -2.75034872 0.12997867 0 0 Z " fill="#F87204" transform="translate(449.06640625,419.90234375)"/>
<path d="M0 0 C16.83 0 33.66 0 51 0 C51 4.29 51 8.58 51 13 C50 14 50 14 46.67358398 14.11352539 C45.19774444 14.11336629 43.72189931 14.10767314 42.24609375 14.09765625 C41.47064713 14.0962413 40.6952005 14.09482635 39.89625549 14.09336853 C37.40996506 14.08775345 34.9237634 14.07519846 32.4375 14.0625 C30.75586067 14.05748694 29.07421994 14.0529237 27.39257812 14.04882812 C23.26165671 14.03862832 19.13092818 14.01905605 15 14 C15 20.6 15 27.2 15 34 C17.14242187 33.98839844 19.28484375 33.97679687 21.4921875 33.96484375 C23.56396334 33.95704812 25.63573755 33.95097424 27.70751953 33.94506836 C29.1489332 33.94003526 30.59034176 33.93320827 32.03173828 33.92456055 C34.10190085 33.91245017 36.17199601 33.90676153 38.2421875 33.90234375 C39.4885498 33.89710693 40.73491211 33.89187012 42.01904297 33.88647461 C45 34 45 34 47 35 C47 38.96 47 42.92 47 47 C36.44 47 25.88 47 15 47 C15.33 53.93 15.66 60.86 16 68 C34.315 68.495 34.315 68.495 53 69 C53 73.29 53 77.58 53 82 C35.51 82 18.02 82 0 82 C0 54.94 0 27.88 0 0 Z " fill="#F97803" transform="translate(635,420)"/>
<path d="M0 0 C1.25490234 0.0002417 1.25490234 0.0002417 2.53515625 0.00048828 C10.71264883 0.15011498 18.00164159 1.79276106 24.875 6.375 C25.84919067 11.24595335 23.37264545 14.39437757 20.875 18.375 C16.72700976 17.9241315 13.08038351 17.15202285 9.125 15.8125 C3.22904538 14.00596512 -3.29378362 12.71406804 -9.15234375 15.25390625 C-11.10965514 16.53220672 -11.10965514 16.53220672 -13.125 19.375 C-13.73231252 23.15383345 -13.41497092 25.52441864 -12.1875 29.125 C-8.34147726 33.32066117 -2.90409146 33.9514068 2.484375 35.234375 C11.71890661 37.46610221 18.95968387 39.9822063 25.4375 47.25 C28.58065014 53.76912622 28.01307078 63.41363824 26.0625 70.203125 C22.68887437 77.090944 16.76742851 80.99335463 9.68359375 83.5078125 C-3.17345339 86.43526323 -16.28586084 85.12892625 -28.125 79.375 C-29.115 78.715 -30.105 78.055 -31.125 77.375 C-30.58160208 72.81045749 -29.33036179 69.4021824 -27.125 65.375 C-23.07613833 65.81509366 -19.63501413 66.53304073 -15.8125 67.9375 C-10.78459713 69.51503367 -5.97662112 69.70771933 -0.75 69.75 C0.03544189 69.76361572 0.82088379 69.77723145 1.63012695 69.79125977 C4.86015538 69.76588122 7.44057204 69.57935708 10.3828125 68.1953125 C12.42664838 65.70204674 12.40936075 64.07054997 12.375 60.875 C12.3853125 59.9159375 12.395625 58.956875 12.40625 57.96875 C12.10418423 55.28463409 12.10418423 55.28463409 10.1328125 53.62890625 C7.84118089 52.35621811 5.76885986 51.53041609 3.25 50.8125 C1.93322266 50.43544922 1.93322266 50.43544922 0.58984375 50.05078125 C-1.99595835 49.40712116 -4.56035873 48.93853996 -7.1875 48.5 C-15.31499028 46.94095312 -21.44568561 43.18127547 -26.125 36.375 C-29.15482054 30.09053126 -29.21424354 22.7612156 -27.54296875 16.03125 C-24.71979908 9.53409241 -18.83245789 4.01565665 -12.40625 1.171875 C-8.21924476 0.15503087 -4.29569401 -0.00770758 0 0 Z " fill="#F87A04" transform="translate(804.125,418.625)"/>
<path d="M0 0 C1.08958008 0.00205444 1.08958008 0.00205444 2.20117188 0.00415039 C8.95808796 0.18998016 21.03706505 1.47456505 26.0625 6.5 C25.694226 11.28756196 24.81247245 14.55438736 22.0625 18.5 C18.04270235 18.07236195 14.64771599 17.39701787 10.875 15.9375 C5.32645154 14.02453561 -0.13206598 13.62243439 -5.9375 14.5 C-9.36001492 16.25399923 -9.36001492 16.25399923 -10.9375 19.5 C-11.83368649 23.57805963 -11.38378044 26.54368477 -9.625 30.3125 C-5.53144197 33.64446584 -1.01034703 34.3201214 4.0625 35.5 C13.45348237 37.82570103 20.95509119 40.20431357 26.43359375 48.6015625 C29.69118674 54.9814851 30.41008847 61.29577239 28.21484375 68.14453125 C24.68599632 76.1233151 19.13260305 80.5777514 11.13720703 83.88696289 C6.97681973 85.1162795 2.74509551 85.02735451 -1.5625 85 C-2.53292236 84.99790527 -3.50334473 84.99581055 -4.50317383 84.99365234 C-13.75939275 84.79160874 -21.15723339 82.68684441 -28.9375 77.5 C-28.34645235 72.65340923 -26.95805843 68.89251833 -24.9375 64.5 C-20.45121991 65.26907659 -16.60802502 66.79002687 -12.4375 68.5625 C-7.94642685 70.24665243 -3.71681865 70.67684716 1.0625 70.75 C2.073125 70.77578125 3.08375 70.8015625 4.125 70.828125 C7.50004248 70.45112557 9.33068707 69.47754246 12.0625 67.5 C14.39626864 64.27717664 14.38075686 61.39864649 14.0625 57.5 C13.76206177 54.8320788 13.76206177 54.8320788 12.0625 52.5 C9.13330248 51.31664234 6.10939043 50.87080257 3 50.375 C-16.64051399 46.95523992 -16.64051399 46.95523992 -22.9375 39.5 C-27.02192902 33.30085181 -28.10907659 26.79666124 -26.9375 19.5 C-24.72293439 12.69951978 -21.07688018 7.27536598 -14.9375 3.5 C-9.88990967 0.9548426 -5.69039296 -0.04857328 0 0 Z " fill="#F97502" transform="translate(522.9375,418.5)"/>
<path d="M0 0 C1.4540625 0.0309375 1.4540625 0.0309375 2.9375 0.0625 C12.67734772 24.90723088 12.67734772 24.90723088 15.94140625 33.45703125 C16.58677545 35.14511461 17.23994492 36.8302448 17.90234375 38.51171875 C19.07259902 41.51555372 19.9375 43.80726841 19.9375 47.0625 C20.5975 47.0625 21.2575 47.0625 21.9375 47.0625 C22.27007812 46.03962891 22.27007812 46.03962891 22.609375 44.99609375 C24.59616735 40.60762005 27.62387813 37.0441795 30.65625 33.32226562 C32.85769756 30.4281212 34.02900407 28.8104463 33.578125 25.125 C31.47206562 21.19368915 29.04746671 17.61146556 26.4375 14 C20.44249709 5.6581161 20.44249709 5.6581161 18.9375 1.0625 C22.60563159 0.00888773 25.29933035 -0.1813607 28.9375 1.0625 C33.20144888 5.28209236 36.15846013 10.8000628 38.9375 16.0625 C38.9375 16.7225 38.9375 17.3825 38.9375 18.0625 C39.5975 18.0625 40.2575 18.0625 40.9375 18.0625 C41.1953125 17.34320313 41.453125 16.62390625 41.71875 15.8828125 C43.00144617 12.91452199 44.54753402 10.55622405 46.4375 7.9375 C47.0459375 7.08929688 47.654375 6.24109375 48.28125 5.3671875 C48.8278125 4.60664063 49.374375 3.84609375 49.9375 3.0625 C50.5975 2.0725 51.2575 1.0825 51.9375 0.0625 C54.1015625 -0.23046875 54.1015625 -0.23046875 56.5625 -0.125 C57.37976563 -0.09792969 58.19703125 -0.07085937 59.0390625 -0.04296875 C59.66554688 -0.00816406 60.29203125 0.02664063 60.9375 0.0625 C60.9375 4.52375833 60.40932221 5.25733878 57.83984375 8.6875 C57.20369141 9.55890625 56.56753906 10.4303125 55.91210938 11.328125 C54.55264094 13.15291485 53.19065404 14.97583111 51.82617188 16.796875 C51.19130859 17.66828125 50.55644531 18.5396875 49.90234375 19.4375 C49.3105835 20.22898437 48.71882324 21.02046875 48.10913086 21.8359375 C46.73865588 23.95393289 46.73865588 23.95393289 47.11816406 26.15112305 C48.50051085 29.37591238 50.6612222 32.08099823 52.75 34.875 C61.9375 47.2464207 61.9375 47.2464207 61.9375 51.0625 C58.68291574 51.89345768 56.17313152 52.04003218 52.9375 51.0625 C50.21647132 48.26372764 48.13573725 45.32869388 45.98046875 42.078125 C44.15467497 39.38307184 42.31671686 37.26528056 39.9375 35.0625 C38.45710151 37.35337928 36.97813324 39.64515983 35.5 41.9375 C35.07912109 42.58847656 34.65824219 43.23945313 34.22460938 43.91015625 C31.94976502 47.40990511 31.94976502 47.40990511 29.9375 51.0625 C24.3275 51.0625 18.7175 51.0625 12.9375 51.0625 C9.9375 45.0625 9.9375 45.0625 9.9375 42.0625 C2.3475 42.0625 -5.2425 42.0625 -13.0625 42.0625 C-13.7225 45.0325 -14.3825 48.0025 -15.0625 51.0625 C-18.3625 51.0625 -21.6625 51.0625 -25.0625 51.0625 C-23.76453325 47.03932465 -22.31760222 43.13941597 -20.671875 39.24609375 C-19.98242798 37.61353638 -19.98242798 37.61353638 -19.27905273 35.94799805 C-18.79509033 34.81015869 -18.31112793 33.67231934 -17.8125 32.5 C-17.31886963 31.33573486 -16.82523926 30.17146973 -16.31665039 28.97192383 C-13.38500144 22.08512803 -10.39698154 15.24097897 -7.18359375 8.48046875 C-6.39394192 6.77735209 -5.6617596 5.04700372 -4.97265625 3.30078125 C-3.66083357 0.07471089 -3.66083357 0.07471089 0 0 Z " fill="#F4F4F4" transform="translate(387.0625,350.9375)"/>
<path d="M0 0 C20.13 0 40.26 0 61 0 C62 6 62 6 62 14 C54.08 14 46.16 14 38 14 C38 36.44 38 58.88 38 82 C33.38 82 28.76 82 24 82 C24 59.56 24 37.12 24 14 C16.08 14 8.16 14 0 14 C0 9.38 0 4.76 0 0 Z " fill="#F97602" transform="translate(560,420)"/>
<path d="M0 0 C1.05343928 0.00639795 2.10687856 0.0127959 3.19224024 0.01938772 C28.64919433 0.1744817 54.10594961 0.35108059 79.5625 0.5625 C75.89410202 4.22071196 72.00791457 4.03341297 67.12086487 4.06954956 C66.25323057 4.0871833 65.38559626 4.10481703 64.49167001 4.12298512 C61.5499075 4.17784341 58.60835945 4.21019079 55.66625977 4.24169922 C53.52672374 4.27447565 51.38719782 4.30791697 49.24768162 4.34196281 C21.23507477 4.75073611 -6.78427856 4.70941845 -34.79926697 4.69780231 C-40.57339256 4.69546511 -46.34751522 4.69524967 -52.12164116 4.69631577 C-53.38212821 4.69654561 -53.38212821 4.69654561 -54.66807966 4.69678011 C-56.37942645 4.69710009 -58.09077323 4.69742431 -59.80212002 4.6977527 C-75.7434778 4.70058263 -91.68482978 4.69736873 -107.6261866 4.69195233 C-120.94000311 4.68756505 -134.25381064 4.68825779 -147.56762695 4.69287109 C-195.85770774 4.70900575 -244.14754875 4.6831908 -292.4375 4.5625 C-293.73615244 4.55926952 -293.73615244 4.55926952 -295.06104028 4.55597377 C-317.41248088 4.49986812 -339.76370777 4.42219408 -362.11490759 4.30337333 C-362.91488815 4.29912282 -363.71486871 4.29487232 -364.53909111 4.29049301 C-365.33448835 4.28625492 -366.12988558 4.28201682 -366.94938577 4.2776503 C-372.49886197 4.24877096 -378.04833571 4.22735984 -383.59785652 4.20923233 C-390.25417463 4.18733815 -396.91033839 4.15507843 -403.56653307 4.10872719 C-406.9398318 4.08546701 -410.31284529 4.06847178 -413.68623805 4.06106329 C-417.32549046 4.0521502 -420.96414562 4.02499387 -424.60325623 3.9928894 C-425.669352 3.99452091 -426.73544778 3.99615242 -427.83384949 3.99783337 C-428.80097003 3.98547583 -429.76809056 3.97311829 -430.76451778 3.96038628 C-432.01888241 3.95371636 -432.01888241 3.95371636 -433.29858774 3.94691169 C-435.89829151 3.47968518 -436.79037771 2.5739623 -438.4375 0.5625 C-390.33577204 0.3622314 -342.23398807 0.17864369 -294.13213998 0.0096876 C-291.38364121 0.00003036 -288.63514255 -0.0096555 -285.88664389 -0.01934195 C-194.82981473 -0.33968616 -103.77659418 -0.60499963 0 0 Z " fill="#0A0B0D" transform="translate(765.4375,530.4375)"/>
<path d="M0 0 C0.33 0.66 0.66 1.32 1 2 C-0.98 2 -2.96 2 -5 2 C-4.96447021 2.76666992 -4.92894043 3.53333984 -4.89233398 4.32324219 C-4.73467494 7.79858443 -4.58598913 11.27425439 -4.4375 14.75 C-4.38142578 15.9565625 -4.32535156 17.163125 -4.26757812 18.40625 C-4.21923828 19.56640625 -4.17089844 20.7265625 -4.12109375 21.921875 C-4.0739624 22.99018555 -4.02683105 24.05849609 -3.97827148 25.15917969 C-4 28 -4 28 -5 32 C-1.7 32 1.6 32 5 32 C5 67.31 5 102.62 5 139 C-0.27949092 137.94410182 -4.32866703 137.08787164 -8 133 C-9.18025632 128.78411707 -9.0111202 124.66743182 -8.90820312 120.31518555 C-8.90937134 119.0269841 -8.91053955 117.73878265 -8.91174316 116.4115448 C-8.91403578 112.88626288 -8.86705698 109.36316494 -8.8111515 105.83839011 C-8.76108952 102.15228634 -8.75643779 98.46613065 -8.74694824 94.77973938 C-8.72209761 87.80247811 -8.65647018 80.82622142 -8.57615232 73.84940225 C-8.48668615 65.90520242 -8.44273575 57.96095421 -8.40258884 50.0163759 C-8.31900109 33.67699614 -8.17831812 17.33862632 -8 1 C-5.36 0.67 -2.72 0.34 0 0 Z " fill="#F16201" transform="translate(163,433)"/>
<path d="M0 0 C56.76 0 113.52 0 172 0 C172 1.98 172 3.96 172 6 C115.24 6 58.48 6 0 6 C0 4.02 0 2.04 0 0 Z " fill="#BCBBC4" transform="translate(672,524)"/>
<path d="M0 0 C3.20815845 -0.08774066 6.41600462 -0.14063706 9.625 -0.1875 C10.52863281 -0.21263672 11.43226563 -0.23777344 12.36328125 -0.26367188 C18.5844611 -0.33178698 22.80108742 0.4629314 27.8125 4.4375 C30.86078942 8.44840713 30.47165778 14.20624181 30 19 C28.23647883 23.26957756 26.18049264 25.11771186 22 27 C18.38790001 27.36399568 14.81310244 27.28246205 11.1875 27.1875 C10.20845703 27.17396484 9.22941406 27.16042969 8.22070312 27.14648438 C5.81323375 27.11125312 3.40690436 27.06199265 1 27 C-0.3308911 24.33821779 -0.11268993 22.31260604 -0.09765625 19.3359375 C-0.09443359 18.21445312 -0.09121094 17.09296875 -0.08789062 15.9375 C-0.07951172 14.761875 -0.07113281 13.58625 -0.0625 12.375 C-0.05798828 11.19164062 -0.05347656 10.00828125 -0.04882812 8.7890625 C-0.03701467 5.85932493 -0.02054258 2.92968728 0 0 Z " fill="#181C20" transform="translate(718,434)"/>
<path d="M0 0 C15.02089324 -0.02337684 30.04178507 -0.04100269 45.06269264 -0.05181217 C52.03740676 -0.05696496 59.01210956 -0.06398827 65.98681641 -0.07543945 C72.7170871 -0.08648403 79.44734362 -0.09228367 86.17762375 -0.09487724 C88.74604858 -0.09672569 91.31447277 -0.1003352 93.88289261 -0.10573006 C97.47874596 -0.11298298 101.07455067 -0.11398913 104.67041016 -0.11352539 C105.73352417 -0.11712067 106.79663818 -0.12071594 107.89196777 -0.12442017 C112.70869895 -0.11769309 117.26559436 -0.01819886 122 1 C122 2.65 122 4.3 122 6 C81.74 6 41.48 6 0 6 C0 4.02 0 2.04 0 0 Z " fill="#FCFCFC" transform="translate(327,524)"/>
<path d="M0 0 C12.87 0 25.74 0 39 0 C39 2.97 39 5.94 39 9 C33.72 9 28.44 9 23 9 C23 22.53 23 36.06 23 50 C20.36 50 17.72 50 15 50 C15 36.47 15 22.94 15 9 C10.05 9 5.1 9 0 9 C0 6.03 0 3.06 0 0 Z " fill="#F3F3F3" transform="translate(328,351)"/>
<path d="M0 0 C0.75925781 -0.04898438 1.51851563 -0.09796875 2.30078125 -0.1484375 C6.01366374 0.66584442 7.4129474 2.388174 9.6875 5.375 C10.21187831 8.1707186 10.47598909 10.39956675 10.5 13.1875 C10.52513672 13.88037109 10.55027344 14.57324219 10.57617188 15.28710938 C10.63463263 16.98247122 10.66403047 18.67879287 10.6875 20.375 C14.56577334 19.84028789 15.41505177 19.69763607 18.0625 16.5625 C19.83889582 13.67433428 19.83889582 13.67433428 19.6875 11.375 C18.62047297 9.13370269 18.62047297 9.13370269 16.625 6.3125 C14.6875 3.375 14.6875 3.375 14.6875 0.375 C16.4375 0.5 16.4375 0.5 18.6875 1.375 C20.07688077 3.33647874 21.4135411 5.33666576 22.6875 7.375 C23.3475 7.705 24.0075 8.035 24.6875 8.375 C24.97625 7.611875 25.265 6.84875 25.5625 6.0625 C26.6875 3.375 26.6875 3.375 28.6875 0.375 C30.0075 0.375 31.3275 0.375 32.6875 0.375 C31.66353803 3.13182069 30.62354828 5.47211187 29 7.9375 C27.51944948 10.19830584 27.51944948 10.19830584 27.75 12.3125 C28.73122013 14.62202748 28.73122013 14.62202748 30.75 17.4375 C32.6875 20.375 32.6875 20.375 32.6875 23.375 C30.375 23.1875 30.375 23.1875 27.6875 22.375 C24.6875 18.34051724 24.6875 18.34051724 24.6875 15.375 C22.65810514 17.33441572 20.86848288 19.07483328 19.40625 21.5 C17.6875 23.375 17.6875 23.375 14.98828125 23.765625 C13.50908203 23.69601562 13.50908203 23.69601562 12 23.625 C11.00613281 23.58890625 10.01226562 23.5528125 8.98828125 23.515625 C7.84939453 23.44601562 7.84939453 23.44601562 6.6875 23.375 C6.6875 22.715 6.6875 22.055 6.6875 21.375 C5.676875 21.890625 4.66625 22.40625 3.625 22.9375 C-0.29561884 24.62687234 -3.14343609 24.43770257 -7.3125 23.375 C-9.3125 21.375 -9.3125 21.375 -9.6875 17.5 C-9.58411473 14.65690512 -9.34080589 13.42646526 -7.9375 10.875 C-3.88238944 8.55779397 0.12330864 9.0614296 4.6875 9.375 C4.6875 7.725 4.6875 6.075 4.6875 4.375 C1.27093976 4.20822718 1.27093976 4.20822718 -2.3125 4.375 C-2.9725 5.035 -3.6325 5.695 -4.3125 6.375 C-5.6325 6.375 -6.9525 6.375 -8.3125 6.375 C-6.48709741 1.28994991 -5.38102081 0.23513704 0 0 Z " fill="#F0EFEC" transform="translate(467.3125,564.625)"/>
<path d="M0 0 C32.34 0 64.68 0 98 0 C98 1.65 98 3.3 98 5 C74.24 5 50.48 5 26 5 C25.67 4.01 25.34 3.02 25 2 C24.67 2.99 24.34 3.98 24 5 C16.08 5 8.16 5 0 5 C0 3.35 0 1.7 0 0 Z " fill="#FCFCFC" transform="translate(450,525)"/>
<path d="M0 0 C32.01 0 64.02 0 97 0 C97 1.65 97 3.3 97 5 C64.99 5 32.98 5 0 5 C0 3.35 0 1.7 0 0 Z " fill="#FCFCFC" transform="translate(672,525)"/>
<path d="M0 0 C32.01 0 64.02 0 97 0 C97 1.65 97 3.3 97 5 C64.99 5 32.98 5 0 5 C0 3.35 0 1.7 0 0 Z " fill="#FCFCFD" transform="translate(549,525)"/>
<path d="M0 0 C2.97 0.495 2.97 0.495 6 1 C6.33 0.67 6.66 0.34 7 0 C11.64062008 -0.46406201 13.94509907 -0.61535887 18 1.75 C20.98627587 6.60269829 20.88755509 11.4379881 20 17 C18.30112573 20.47676595 17.2608771 21.82608194 14 24 C7.93617021 23.46808511 7.93617021 23.46808511 5 22 C5 25.3 5 28.6 5 32 C3.35 32 1.7 32 0 32 C0 21.44 0 10.88 0 0 Z " fill="#F3F2EF" transform="translate(707,565)"/>
<path d="M0 0 C2.56649216 0.4416029 4.65117825 1.05874667 6.9296875 2.33203125 C10.19131941 7.22447911 9.60250996 12.62019802 8.9296875 18.33203125 C6.8695901 21.7876785 5.56486722 22.81752624 1.76953125 24.01171875 C-0.6597302 24.47404898 -2.6159665 24.64327078 -5.0703125 24.33203125 C-8.39406453 21.83921723 -9.75966005 20.26398859 -11.0703125 16.33203125 C-11.6557363 11.47301373 -12.01081072 6.84149015 -9.0703125 2.70703125 C-5.66818808 0.01368275 -4.1874372 -0.33973547 0 0 Z " fill="#F1F0EC" transform="translate(374.0703125,564.66796875)"/>
<path d="M0 0 C8.58 0 17.16 0 26 0 C26 1.98 26 3.96 26 6 C50.09 6 74.18 6 99 6 C99.33 5.01 99.66 4.02 100 3 C100 3.99 100 4.98 100 6 C107.92 6 115.84 6 124 6 C124.33 5.01 124.66 4.02 125 3 C125 3.99 125 4.98 125 6 C149.09 6 173.18 6 198 6 C198 6.33 198 6.66 198 7 C172.33166256 7.02332585 146.6633267 7.04097763 120.99498081 7.05181217 C109.07762359 7.0569758 97.16027293 7.06401976 85.24291992 7.07543945 C74.85980679 7.08538426 64.47669842 7.09185294 54.09358066 7.09408849 C48.59215674 7.09539595 43.09074643 7.09848398 37.58932686 7.10573006 C32.41761015 7.11248707 27.24591275 7.11461762 22.07419205 7.11310768 C20.17018085 7.11338415 18.26616904 7.11539116 16.36216164 7.11920547 C13.77446234 7.12413776 11.18683715 7.12300002 8.59913635 7.12025452 C7.83553238 7.12316736 7.07192841 7.1260802 6.28518492 7.12908131 C1.11412121 7.11412121 1.11412121 7.11412121 0 6 C0 4.02 0 2.04 0 0 Z " fill="#AEAEB4" transform="translate(646,524)"/>
<path d="M0 0 C3.46236126 2.39067801 5.74528805 5.0530761 7.625 8.8125 C8.43367402 15.20235044 7.59087222 20.62995902 3.625 25.8125 C0.31972385 28.78306464 -3.01617091 30.0386554 -7.4375 30.25 C-11.5930531 29.78827188 -13.930687 29.16089523 -17.375 26.8125 C-21.55699217 21.38721286 -22.7855273 17.11261226 -22.7265625 10.390625 C-22.17638298 6.35597519 -20.337566 3.55677166 -17.375 0.8125 C-12.06310745 -2.51021103 -5.73105618 -2.01648273 0 0 Z M-16.375 5.8125 C-18.89424867 10.06151448 -19.28248594 13.9833784 -18.375 18.8125 C-16.87330013 21.83798357 -15.17491551 23.91234592 -12.375 25.8125 C-8.43898189 26.86363934 -5.22753179 26.18316599 -1.5 24.5625 C1.38952564 22.18289065 2.44214011 20.12016087 2.9609375 16.41015625 C3.02630442 12.16784289 3.0519368 9.54439166 0.875 5.8125 C-2.27156253 3.01555553 -4.11832437 1.97292668 -8.3125 1.4375 C-12.15965622 1.90858035 -13.65805891 3.09555891 -16.375 5.8125 Z " fill="#EAE9E5" transform="translate(595.375,559.1875)"/>
<path d="M0 0 C7.59 0 15.18 0 23 0 C23 1.32 23 2.64 23 4 C16.73 4 10.46 4 4 4 C4 6.97 4 9.94 4 13 C9.94 13 15.88 13 22 13 C22 14.32 22 15.64 22 17 C16.06 17 10.12 17 4 17 C4 20.3 4 23.6 4 27 C10.6 27 17.2 27 24 27 C24 27.99 24 28.98 24 30 C16.08 30 8.16 30 0 30 C0 20.1 0 10.2 0 0 Z " fill="#ECEBEA" transform="translate(658,558)"/>
<path d="M0 0 C3.29167697 1.35960571 4.5912564 2.26036872 6.3125 5.375 C7 8 7 8 7 13 C1.72 13 -3.56 13 -9 13 C-8.34 14.98 -7.68 16.96 -7 19 C-2.52572076 19.08948558 1.60563789 18.85743651 6 18 C4.9958588 20.7385669 4.33822766 21.81209575 1.75 23.25 C-1.42385351 24.11559641 -3.72477694 24.40940288 -7 24 C-10.50420484 21.77005147 -12.42387593 19.80780418 -14 16 C-14.75015822 11.20247649 -14.43135757 7.8052008 -12.125 3.5 C-8.6226875 -0.62036765 -5.17057717 -0.54583828 0 0 Z " fill="#DBDAD9" transform="translate(517,565)"/>
<path d="M0 0 C0.33 0.66 0.66 1.32 1 2 C-1.64 2 -4.28 2 -7 2 C-6.97494385 2.54755447 -6.9498877 3.09510895 -6.92407227 3.65925598 C-5.47153602 35.80835424 -4.80957064 67.88352322 -4.875 100.0625 C-4.87756805 101.33456488 -4.87756805 101.33456488 -4.88018799 102.63232803 C-4.9028737 113.08830881 -4.94288437 123.54414864 -5 134 C-5.99 133.67 -6.98 133.34 -8 133 C-8 89.44 -8 45.88 -8 1 C-5.36 0.67 -2.72 0.34 0 0 Z " fill="#AD4610" transform="translate(163,433)"/>
<path d="M0 0 C2.87029869 1.79393668 4.49131638 2.98263276 6 6 C6 7.98 6 9.96 6 12 C1.05 12.33 -3.9 12.66 -9 13 C-8.5547002 17.63019987 -8.5547002 17.63019987 -7 19 C-2.83535074 19.16017882 0.94726192 18.98248196 5 18 C3.63016497 21.16115776 3.0109362 21.9927092 0 24 C-3.0169088 24.34061873 -5.09407815 24.57212107 -8 24 C-10.69105198 21.82425584 -12.45532928 20.08934144 -14 17 C-14.5755026 11.43406774 -14.97836883 6.64113481 -12.0625 1.75 C-7.93738497 -0.60720859 -4.64634987 -0.93432035 0 0 Z " fill="#EBEAE8" transform="translate(745,565)"/>
<path d="M0 0 C0.99 0 1.98 0 3 0 C3 1.65 3 3.3 3 5 C4.32 5 5.64 5 7 5 C7 5.99 7 6.98 7 8 C6.01 8 5.02 8 4 8 C4 13.61 4 19.22 4 25 C5.32 25.33 6.64 25.66 8 26 C8 26.66 8 27.32 8 28 C4.625 28.125 4.625 28.125 1 28 C-1 26 -1 26 -1.22705078 24.12060547 C-1.21134033 23.00516357 -1.21134033 23.00516357 -1.1953125 21.8671875 C-1.18564453 20.65869141 -1.18564453 20.65869141 -1.17578125 19.42578125 C-1.15902344 18.58402344 -1.14226563 17.74226562 -1.125 16.875 C-1.11597656 16.02550781 -1.10695313 15.17601562 -1.09765625 14.30078125 C-1.07405647 12.20040116 -1.03818483 10.10016556 -1 8 C-6.01535052 8.32960216 -6.01535052 8.32960216 -10 11 C-10.30675232 13.89967757 -10.51173371 16.71783178 -10.625 19.625 C-10.66367187 20.42679688 -10.70234375 21.22859375 -10.7421875 22.0546875 C-10.83653931 24.03607556 -10.91936215 26.01800645 -11 28 C-12.65 28 -14.3 28 -16 28 C-16 20.41 -16 12.82 -16 5 C-13.525 5.495 -13.525 5.495 -11 6 C-10.67 5.67 -10.34 5.34 -10 5 C-8.48530552 4.76807135 -6.96245438 4.58784762 -5.4375 4.4375 C-4.61121094 4.35371094 -3.78492188 4.26992188 -2.93359375 4.18359375 C-1.97646484 4.09271484 -1.97646484 4.09271484 -1 4 C-0.67 2.68 -0.34 1.36 0 0 Z " fill="#E3E0DA" transform="translate(771,560)"/>
<path d="M0 0 C0.33 0 0.66 0 1 0 C1.33 2.97 1.66 5.94 2 9 C2.33 9 2.66 9 3 9 C3.04637279 19.71821316 3.08189437 30.4364024 3.10362434 41.15469551 C3.11405446 46.13181226 3.12819964 51.10886029 3.15087891 56.0859375 C3.1726347 60.89050852 3.18457444 65.69501349 3.18975449 70.49962997 C3.19344532 72.33121658 3.20065258 74.16279963 3.21146011 75.99435806 C3.22601136 78.56288673 3.22797642 81.13114368 3.22705078 83.69970703 C3.23424133 84.45424667 3.24143188 85.20878632 3.24884033 85.9861908 C3.23177807 90.37147225 2.6195174 93.92375748 1 98 C1.66 98.33 2.32 98.66 3 99 C2.01 99 1.02 99 0 99 C0 66.33 0 33.66 0 0 Z " fill="#C4540A" transform="translate(211,477)"/>
<path d="M0 0 C0.66 0 1.32 0 2 0 C3.34117853 3.60129621 4.6715839 7.20647859 6 10.8125 C6.3815625 11.83666016 6.763125 12.86082031 7.15625 13.91601562 C7.5171875 14.89892578 7.878125 15.88183594 8.25 16.89453125 C8.75273437 18.25348511 8.75273437 18.25348511 9.265625 19.63989258 C10 22 10 22 10 25 C4.06 25 -1.88 25 -8 25 C-6.8780083 17.14605809 -6.8780083 17.14605809 -5.125 13.0625 C-4.77179688 12.22074219 -4.41859375 11.37898438 -4.0546875 10.51171875 C-3.70664062 9.68285156 -3.35859375 8.85398437 -3 8 C-1.97768999 5.34113489 -0.98939283 2.67136064 0 0 Z " fill="#171A1E" transform="translate(450,447)"/>
<path d="M0 0 C15.84 0 31.68 0 48 0 C48 1.65 48 3.3 48 5 C32.16 5 16.32 5 0 5 C0 3.35 0 1.7 0 0 Z " fill="#FDFDFD" transform="translate(796,525)"/>
<path d="M0 0 C38.28 0 76.56 0 116 0 C116 0.33 116 0.66 116 1 C85.97 1 55.94 1 25 1 C24.67 2.65 24.34 4.3 24 6 C16.08 6 8.16 6 0 6 C0 4.02 0 2.04 0 0 Z " fill="#BCBBC2" transform="translate(327,524)"/>
<path d="M0 0 C1.32 0 2.64 0 4 0 C4.33 6.27 4.66 12.54 5 19 C7.64 19 10.28 19 13 19 C13.33 12.73 13.66 6.46 14 0 C15.65 0 17.3 0 19 0 C19 7.59 19 15.18 19 23 C15.1328125 23.0928125 15.1328125 23.0928125 11.1875 23.1875 C10.37949951 23.21481201 9.57149902 23.24212402 8.73901367 23.27026367 C3.46493965 23.33179784 3.46493965 23.33179784 1.28125 21.7734375 C-0.37535625 19.48045202 -0.34667028 18.14241124 -0.29296875 15.33203125 C-0.28330078 14.43935547 -0.27363281 13.54667969 -0.26367188 12.62695312 C-0.23853516 11.69818359 -0.21339844 10.76941406 -0.1875 9.8125 C-0.17396484 8.87212891 -0.16042969 7.93175781 -0.14648438 6.96289062 C-0.11113096 4.64134962 -0.06178674 2.32096347 0 0 Z " fill="#E5E3E0" transform="translate(607,565)"/>
<path d="M0 0 C8.25 0 16.5 0 25 0 C25 1.32 25 2.64 25 4 C21.7 4 18.4 4 15 4 C15 12.58 15 21.16 15 30 C13.35 30 11.7 30 10 30 C10 21.42 10 12.84 10 4 C6.7 4 3.4 4 0 4 C0 2.68 0 1.36 0 0 Z " fill="#E1DED9" transform="translate(435,558)"/>
<path d="M0 0 C0.680625 1.1446875 0.680625 1.1446875 1.375 2.3125 C5.03948898 6.06423872 8.99332046 6.82476797 14 8 C14.38218767 9.65614657 14.71395102 11.32457024 15 13 C14 14 14 14 10.3125 14.25 C6.25252227 14.2207389 3.50504065 13.10302439 0 11 C-0.66 12.32 -1.32 13.64 -2 15 C-2.33 14.01 -2.66 13.02 -3 12 C-4.2684375 12.495 -4.2684375 12.495 -5.5625 13 C-9.27324441 14.07948928 -12.15675902 14.3695424 -16 14 C-18 11 -18 11 -18 7 C-12.72 7 -7.44 7 -2 7 C-2 5.02 -2 3.04 -2 1 C-1.34 0.67 -0.68 0.34 0 0 Z " fill="#191718" transform="translate(526,571)"/>
<path d="M0 0 C0.86625 -0.00515625 1.7325 -0.0103125 2.625 -0.015625 C5 0.25 5 0.25 8 2.25 C8 3.57 8 4.89 8 6.25 C7.113125 5.92 6.22625 5.59 5.3125 5.25 C2.29076653 4.33777857 0.11626294 4.06669042 -3 4.25 C-3 5.57 -3 6.89 -3 8.25 C-2.21753906 8.52714844 -1.43507813 8.80429687 -0.62890625 9.08984375 C0.38300781 9.45207031 1.39492188 9.81429687 2.4375 10.1875 C3.44683594 10.54714844 4.45617187 10.90679688 5.49609375 11.27734375 C8 12.25 8 12.25 9 13.25 C9.46889952 19.58014354 9.46889952 19.58014354 7.6875 22.125 C3.93313686 24.62790876 0.37857182 24.62746309 -4 24.25 C-6.9375 22.4375 -6.9375 22.4375 -9 20.25 C-9 19.26 -9 18.27 -9 17.25 C-8.34 17.58 -7.68 17.91 -7 18.25 C-3.13938967 19.53687011 -0.05849717 19.38757618 4 19.25 C4 17.93 4 16.61 4 15.25 C3.31292969 15.07984375 2.62585938 14.9096875 1.91796875 14.734375 C1.01691406 14.49203125 0.11585938 14.2496875 -0.8125 14 C-2.15248047 13.65195312 -2.15248047 13.65195312 -3.51953125 13.296875 C-6.42697212 12.06979759 -7.46893588 10.98440883 -9 8.25 C-8.875 5.125 -8.875 5.125 -8 2.25 C-4.76085771 0.09057181 -3.75140267 -0.02232978 0 0 Z " fill="#EBE9E7" transform="translate(536,564.75)"/>
<path d="M0 0 C1.32 0 2.64 0 4 0 C4.06058594 1.20398438 4.12117188 2.40796875 4.18359375 3.6484375 C4.26799732 5.22397077 4.35264541 6.79949096 4.4375 8.375 C4.47681641 9.1690625 4.51613281 9.963125 4.55664062 10.78125 C4.68893404 15.02601221 4.68893404 15.02601221 6 19 C8.31 19 10.62 19 13 19 C14.23759823 15.28720531 14.35608897 11.68693654 14.5625 7.8125 C14.60568359 7.06291016 14.64886719 6.31332031 14.69335938 5.54101562 C14.79922685 3.69421625 14.9000976 1.84713166 15 0 C16.32 0 17.64 0 19 0 C19 7.59 19 15.18 19 23 C17.68 23 16.36 23 15 23 C15 22.34 15 21.68 15 21 C14.01 21.66 13.02 22.32 12 23 C9.84375 23.37109375 9.84375 23.37109375 7.5 23.4375 C6.7265625 23.47746094 5.953125 23.51742187 5.15625 23.55859375 C3 23 3 23 1.23046875 21.0546875 C-0.46110936 16.85527771 -0.32531917 13.1648562 -0.1875 8.6875 C-0.17396484 7.85154297 -0.16042969 7.01558594 -0.14648438 6.15429688 C-0.11131217 4.10258502 -0.05751048 2.05120725 0 0 Z " fill="#EFEDE9" transform="translate(387,565)"/>
<path d="M0 0 C1.28197266 -0.01160156 1.28197266 -0.01160156 2.58984375 -0.0234375 C5.4850126 0.4430826 6.88197953 1.46261778 9.0625 3.375 C8.7325 4.695 8.4025 6.015 8.0625 7.375 C7.36125 6.88 6.66 6.385 5.9375 5.875 C2.69130281 4.1813319 0.66909844 4.12337685 -2.9375 4.375 C-2.9375 5.695 -2.9375 7.015 -2.9375 8.375 C-2.25042969 8.55675781 -1.56335938 8.73851562 -0.85546875 8.92578125 C0.04558594 9.17714844 0.94664062 9.42851563 1.875 9.6875 C2.76832031 9.93113281 3.66164063 10.17476562 4.58203125 10.42578125 C7.15985277 11.41225468 8.39435546 12.20103099 10.0625 14.375 C10.625 17.3125 10.625 17.3125 10.0625 20.375 C6.89550168 23.38364841 4.24112644 24.62713781 -0.0625 24.8125 C-5.51913265 24.19642857 -5.51913265 24.19642857 -7.9375 21.375 C-7.9375 20.055 -7.9375 18.735 -7.9375 17.375 C-7.2775 17.705 -6.6175 18.035 -5.9375 18.375 C-2.07688967 19.66187011 1.00400283 19.51257618 5.0625 19.375 C5.0625 18.055 5.0625 16.735 5.0625 15.375 C4.37542969 15.19324219 3.68835938 15.01148438 2.98046875 14.82421875 C2.07941406 14.57285156 1.17835938 14.32148437 0.25 14.0625 C-0.64332031 13.81886719 -1.53664063 13.57523438 -2.45703125 13.32421875 C-5.03417085 12.33800627 -6.28131844 11.55986493 -7.9375 9.375 C-8.5778569 4.25214482 -8.5778569 4.25214482 -6.72265625 1.7109375 C-4.3774843 -0.04409271 -2.90646459 -0.02622374 0 0 Z " fill="#F4F2EF" transform="translate(798.9375,564.625)"/>
<path d="M0 0 C2.79913972 0.36456787 3.87954649 0.87705263 5.88671875 2.92578125 C6.48097656 3.71339844 7.07523437 4.50101563 7.6875 5.3125 C8.59048828 6.48232422 8.59048828 6.48232422 9.51171875 7.67578125 C10.91104355 9.86107851 11.56516545 11.46636402 12 14 C12.66 14 13.32 14 14 14 C14.20625 13.175 14.4125 12.35 14.625 11.5 C16.33017286 7.15956 18.57974413 3.22387754 22 0 C23.32 0 24.64 0 26 0 C24.58144925 4.09968595 22.54560879 7.05407768 19.9375 10.5 C15.53498299 16.90076614 14.80250428 22.34704093 15 30 C13.68 30 12.36 30 11 30 C11.00902344 29.26136719 11.01804687 28.52273438 11.02734375 27.76171875 C10.74634524 18.14668273 7.2406054 12.21920665 1.2734375 4.875 C0 3 0 3 0 0 Z " fill="#ECEBE9" transform="translate(338,558)"/>
<path d="M0 0 C3.0625 1.8125 3.0625 1.8125 5 5 C5.3956155 8.70629256 5.29246282 12.28897176 5 16 C4.01 15.34 3.02 14.68 2 14 C1.9175 14.61875 1.835 15.2375 1.75 15.875 C1 18 1 18 -0.6875 19.25 C-3.56780808 20.18415397 -5.99063013 20.20062466 -9 20 C-10 19 -10 19 -10.375 16.625 C-10.25125 15.75875 -10.1275 14.8925 -10 14 C-7.5 12.1875 -7.5 12.1875 -5 11 C-6.65 10.67 -8.3 10.34 -10 10 C-10 9.67 -10 9.34 -10 9 C-6.7 9 -3.4 9 0 9 C0 7.35 0 5.7 0 4 C-3.41656024 3.83322718 -3.41656024 3.83322718 -7 4 C-7.66 4.66 -8.32 5.32 -9 6 C-10.32 6 -11.64 6 -13 6 C-10.56260255 -0.78989291 -6.8179807 -0.97567655 0 0 Z " fill="#DBDAD7" transform="translate(472,565)"/>
<path d="M0 0 C3.17538332 0.34021964 4.02276865 1.02466604 6.25 3.4375 C8 6 8 6 8 8 C8.66 8 9.32 8 10 8 C10.268125 7.236875 10.53625 6.47375 10.8125 5.6875 C11.96131822 3.08754297 12.67278944 1.61114577 15 0 C17.1015625 0.4296875 17.1015625 0.4296875 19 1 C18.55527344 1.60328125 18.11054687 2.2065625 17.65234375 2.828125 C17.08644531 3.62734375 16.52054688 4.4265625 15.9375 5.25 C15.36902344 6.03890625 14.80054688 6.8278125 14.21484375 7.640625 C12.80830663 9.86660557 12.80830663 9.86660557 13.15625 12.0703125 C14.07581101 14.17338259 15.15947971 15.8102672 16.5625 17.625 C19 20.78753541 19 20.78753541 19 23 C16.75 22.875 16.75 22.875 14 22 C12.60287726 20.04402816 11.26220093 18.04563599 10 16 C9.34 16 8.68 16 8 16 C7.401875 16.969375 6.80375 17.93875 6.1875 18.9375 C4 22 4 22 1.36328125 22.69140625 C0.58339844 22.79324219 -0.19648437 22.89507813 -1 23 C-0.65066406 22.39671875 -0.30132813 21.7934375 0.05859375 21.171875 C0.51363281 20.37265625 0.96867188 19.5734375 1.4375 18.75 C1.88996094 17.96109375 2.34242188 17.1721875 2.80859375 16.359375 C3.92821944 14.14214903 4.7595148 12.46998337 5 10 C4.04225969 8.11898132 4.04225969 8.11898132 2.5625 6.4375 C0 3.30245232 0 3.30245232 0 0 Z " fill="#EEEDEA" transform="translate(685,565)"/>
<path d="M0 0 C3 0.4375 3 0.4375 4.6640625 1.62109375 C6.50020807 4.11760747 6.39977358 5.86557621 6.375 8.9375 C6.38273437 9.8965625 6.39046875 10.855625 6.3984375 11.84375 C6 14.4375 6 14.4375 4.70703125 16.26953125 C1.95343606 18.15357006 -0.77312669 17.62015321 -4 17.4375 C-6.26647307 12.90455387 -6.3948217 9.4122534 -6 4.4375 C-4.45429626 1.0026028 -3.74629661 0.54633492 0 0 Z " fill="#232224" transform="translate(373,567.5625)"/>
<path d="M0 0 C0.7528125 0.01289062 1.505625 0.02578125 2.28125 0.0390625 C4.69150034 0.40399477 6.39109398 1.17675794 8.5 2.375 C8.17 3.695 7.84 5.015 7.5 6.375 C6.96375 6.045 6.4275 5.715 5.875 5.375 C2.93720283 4.13803277 0.65845117 4.16443659 -2.5 4.375 C-3.83210219 5.48240578 -3.83210219 5.48240578 -3.6328125 8.28125 C-3.63023437 9.4671875 -3.62765625 10.653125 -3.625 11.875 C-3.62886719 13.65390625 -3.62886719 13.65390625 -3.6328125 15.46875 C-3.83210219 18.26759422 -3.83210219 18.26759422 -2.5 19.375 C1.66464926 19.53517882 5.44726192 19.35748196 9.5 18.375 C9.3125 20.25 9.3125 20.25 8.5 22.375 C4.8700466 24.44925909 1.62085464 24.96369352 -2.5 24.375 C-6.88107559 22.34672427 -6.88107559 22.34672427 -8.5 19.375 C-9.34793363 13.56793937 -10.31383474 6.89421492 -6.7421875 1.93359375 C-4.2145263 0.17656097 -3.04018145 -0.11452738 0 0 Z " fill="#E9E8E5" transform="translate(821.5,564.625)"/>
<path d="M0 0 C0.33 0 0.66 0 1 0 C1.66 3.63 2.32 7.26 3 11 C6.04275136 10.39144973 9.00645224 9.77610498 12 9 C11.125 12.875 11.125 12.875 10 14 C8.14712498 14.07226502 6.29166122 14.0838122 4.4375 14.0625 C3.42558594 14.05347656 2.41367187 14.04445313 1.37109375 14.03515625 C0.19740234 14.01775391 0.19740234 14.01775391 -1 14 C-1 13.34 -1 12.68 -1 12 C-2.010625 12.515625 -3.02125 13.03125 -4.0625 13.5625 C-7.98311884 15.25187234 -10.83093609 15.06270257 -15 14 C-17.59335905 11.40664095 -17.27726563 9.51252968 -17.36328125 5.97265625 C-17 4 -17 4 -15.8359375 2.2578125 C-13.26378087 0.49561157 -11.3961355 0.70366581 -8.3125 0.8125 C-7.31863281 0.83957031 -6.32476562 0.86664062 -5.30078125 0.89453125 C-4.16189453 0.94673828 -4.16189453 0.94673828 -3 1 C-3 1.33 -3 1.66 -3 2 C-7.455 3.485 -7.455 3.485 -12 5 C-12 6.65 -12 8.3 -12 10 C-8.73290013 10.22275681 -6.60427292 10.32663401 -3.6875 8.75 C-1.78363992 6.77562658 -1.41726356 5.67048675 -1 3 C-0.67 2.01 -0.34 1.02 0 0 Z " fill="#F2F1EE" transform="translate(475,574)"/>
<path d="M0 0 C2.80561141 2.93985119 3.41137378 5.04319708 3.375 9.0625 C3.38273438 9.91972656 3.39046875 10.77695312 3.3984375 11.66015625 C2.92296574 14.45238746 2.27301239 15.34980365 0 17 C-3.0625 17.3125 -3.0625 17.3125 -6 17 C-8.69101234 14.30898766 -8.29887549 12.80924054 -8.3125 9.0625 C-8.32925781 8.00160156 -8.34601562 6.94070313 -8.36328125 5.84765625 C-8 3 -8 3 -6.63671875 1.1484375 C-4.26880854 -0.51305559 -2.82133362 -0.49373338 0 0 Z " fill="#1F1E1F" transform="translate(720,568)"/>
<path d="M0 0 C20.13 0 40.26 0 61 0 C61 4.29 61 8.58 61 13 C53.74 13 46.48 13 39 13 C39 12.67 39 12.34 39 12 C45.27 11.67 51.54 11.34 58 11 C58.33 8.03 58.66 5.06 59 2 C39.53 2 20.06 2 0 2 C0 1.34 0 0.68 0 0 Z " fill="#FA9316" transform="translate(560,420)"/>
<path d="M0 0 C0.33 0 0.66 0 1 0 C1.69483618 20.0100216 2.21912055 39.98105172 1.625 60 C1.59286911 61.13399231 1.59286911 61.13399231 1.56008911 62.29089355 C1.34579859 69.56900787 1.10722323 76.79366576 0 84 C-0.33 84 -0.66 84 -1 84 C-1.02312312 73.19541915 -1.04091493 62.39084414 -1.05181217 51.58624363 C-1.05704107 46.5697753 -1.06413883 41.55332385 -1.07543945 36.53686523 C-1.0862681 31.69990306 -1.09227679 26.86295716 -1.09487724 22.02598381 C-1.09673153 20.17631715 -1.10035222 18.32665143 -1.10573006 16.47699165 C-1.1129402 13.89552986 -1.11399095 11.31413618 -1.11352539 8.73266602 C-1.11712067 7.96014999 -1.12071594 7.18763397 -1.12442017 6.39170837 C-1.11405216 1.11405216 -1.11405216 1.11405216 0 0 Z " fill="#212F31" transform="translate(263,449)"/>
<path d="M0 0 C0.33 0.99 0.66 1.98 1 3 C1.66 3 2.32 3 3 3 C3.226875 3.763125 3.45375 4.52625 3.6875 5.3125 C6.37347163 10.81234668 12.5631774 12.06485975 18 14 C17.67 15.65 17.34 17.3 17 19 C11.32723489 19.29341888 8.00932754 19.00559652 3 16 C3 16.99 3 17.98 3 19 C2.34 19 1.68 19 1 19 C0.67 19.66 0.34 20.32 0 21 C0 14.07 0 7.14 0 0 Z " fill="#1D1B1C" transform="translate(787,566)"/>
<path d="M0 0 C3.96 0 7.92 0 12 0 C12 0.99 12 1.98 12 3 C10.02 3.99 8.04 4.98 6 6 C5.67 11.61 5.34 17.22 5 23 C3.35 23 1.7 23 0 23 C0 15.41 0 7.82 0 0 Z " fill="#E0DDD9" transform="translate(411,565)"/>
<path d="M0 0 C0.66 0 1.32 0 2 0 C2.08706892 3.27066566 2.14041241 6.54103365 2.1875 9.8125 C2.22520508 11.2056543 2.22520508 11.2056543 2.26367188 12.62695312 C2.27817383 13.9659668 2.27817383 13.9659668 2.29296875 15.33203125 C2.31653442 16.56530151 2.31653442 16.56530151 2.34057617 17.82348633 C1.92566921 20.47502434 1.04470249 21.33263592 -1 23 C-2.20572596 21.61987977 -3.38905751 20.22017172 -4.5625 18.8125 C-5.22378906 18.03519531 -5.88507812 17.25789062 -6.56640625 16.45703125 C-8 14 -8 14 -7.8671875 11.40625 C-6.55485485 7.76482246 -4.66914099 5.79934299 -2 3 C-1.34 3 -0.68 3 0 3 C0 2.01 0 1.02 0 0 Z " fill="#161617" transform="translate(705,564)"/>
<path d="M0 0 C1.32 0.33 2.64 0.66 4 1 C3.01 1 2.02 1 1 1 C1.33 39.28 1.66 77.56 2 117 C2.66 117 3.32 117 4 117 C4.33 117.99 4.66 118.98 5 120 C3.35 119.34 1.7 118.68 0 118 C0 79.06 0 40.12 0 0 Z " fill="#AB5005" transform="translate(184,466)"/>
<path d="M0 0 C0.33 0 0.66 0 1 0 C1.02505615 0.90540527 1.0501123 1.81081055 1.07592773 2.74365234 C1.19391235 6.95417827 1.31480225 11.16460916 1.4375 15.375 C1.45956512 16.13662445 1.48163025 16.8982489 1.50436401 17.68295288 C1.74505736 25.90072544 2.00381808 34.10901788 2.5625 42.3125 C3.32939484 54.52290371 3.08493867 66.77144465 3 79 C-2.25638841 70.22764415 -0.13814934 56.19047169 -0.09765625 46.2890625 C-0.09578414 44.94143731 -0.094364 43.59381143 -0.09336853 42.2461853 C-0.08960566 38.75124124 -0.0798311 35.25634077 -0.06866455 31.76141357 C-0.058314 28.17428171 -0.05384212 24.58714259 -0.04882812 21 C-0.03820117 13.9999825 -0.02120278 6.99999414 0 0 Z " fill="#B44C0A" transform="translate(121,453)"/>
<path d="M0 0 C0.79921875 0.01804687 1.5984375 0.03609375 2.421875 0.0546875 C3.02515625 0.07789063 3.6284375 0.10109375 4.25 0.125 C1.86270509 2.51229491 -0.13081994 3.19392879 -3.28125 4.40234375 C-4.40273437 4.83353516 -5.52421875 5.26472656 -6.6796875 5.70898438 C-7.85789063 6.15564453 -9.03609375 6.60230469 -10.25 7.0625 C-11.39726562 7.50529297 -12.54453125 7.94808594 -13.7265625 8.40429688 C-31.31457247 15.125 -31.31457247 15.125 -36.75 15.125 C-36.75 14.465 -36.75 13.805 -36.75 13.125 C-33.8401016 10.2151016 -30.82743582 9.59021271 -26.890625 8.72265625 C-24.64443823 8.09552746 -22.80471564 7.22111799 -20.75 6.125 C-18.01731352 4.67258789 -15.51498048 3.70349544 -12.5 3 C-8.95719852 2.34668378 -8.95719852 2.34668378 -6.8125 1.078125 C-4.3734979 -0.04898961 -2.67077263 -0.07855214 0 0 Z " fill="#1D2A37" transform="translate(185.75,382.875)"/>
<path d="M0 0 C3.16705305 2.1113687 3.71809995 2.96271829 5.1875 6.3125 C5.53167969 7.07175781 5.87585938 7.83101563 6.23046875 8.61328125 C7 11 7 11 7 16 C3.04 16 -0.92 16 -5 16 C-4.49228528 10.03435204 -2.61407872 5.36190101 0 0 Z " fill="#212221" transform="translate(385,368)"/>
<path d="M0 0 C2.98096832 0.23847747 4.6142558 0.70492665 7.125 2.25 C7.785 1.59 8.445 0.93 9.125 0.25 C10.62321059 3.62097383 11.125 5.45442119 11.125 9.25 C5.845 9.25 0.565 9.25 -4.875 9.25 C-4.875 0.42391304 -4.875 0.42391304 0 0 Z " fill="#E5E4E3" transform="translate(821.875,567.75)"/>
<path d="M0 0 C7.59 0 15.18 0 23 0 C23 1.32 23 2.64 23 4 C16.73 4 10.46 4 4 4 C4 6.97 4 9.94 4 13 C3.67 13 3.34 13 3 13 C2.93941406 12.21753906 2.87882813 11.43507813 2.81640625 10.62890625 C2.73261719 9.61699219 2.64882813 8.60507812 2.5625 7.5625 C2.44068359 6.04849609 2.44068359 6.04849609 2.31640625 4.50390625 C2.26788532 2.06359221 2.26788532 2.06359221 1 1 C1 10.57 1 20.14 1 30 C0.67 30 0.34 30 0 30 C0 20.1 0 10.2 0 0 Z " fill="#D5D4D2" transform="translate(658,558)"/>
<path d="M0 0 C5.63470383 -0.5497272 8.38987758 1.04952165 13 4 C13.33 3.01 13.66 2.02 14 1 C14.99 1 15.98 1 17 1 C16.67 5.29 16.34 9.58 16 14 C13 13 13 13 10.875 10.625 C7.22852541 7.29561015 3.69736892 6.25877206 -1 5 C-0.67 3.35 -0.34 1.7 0 0 Z " fill="#191718" transform="translate(796,568)"/>
<path d="M0 0 C2.475 0.495 2.475 0.495 5 1 C5.33 0.67 5.66 0.34 6 0 C7.66617115 -0.04063832 9.33388095 -0.042721 11 0 C11 0.99 11 1.98 11 3 C9.54207031 3.82757812 9.54207031 3.82757812 8.0546875 4.671875 C4.60300849 6.77452366 4.60300849 6.77452366 4.1953125 10.890625 C4.14249962 12.34297908 4.11986465 13.79669507 4.125 15.25 C4.104375 15.99507812 4.08375 16.74015625 4.0625 17.5078125 C4.01557061 19.33805864 4.00425777 21.16915725 4 23 C2.68 23 1.36 23 0 23 C0 15.41 0 7.82 0 0 Z " fill="#F0EEE9" transform="translate(631,565)"/>
<path d="M0 0 C7.92 0 15.84 0 24 0 C24 1.65 24 3.3 24 5 C16.08 5 8.16 5 0 5 C0 3.35 0 1.7 0 0 Z " fill="#FCFBFC" transform="translate(647,525)"/>
<path d="M0 0 C0.99 0.66 1.98 1.32 3 2 C2.34 2.804375 1.68 3.60875 1 4.4375 C-1.20058032 7.81384164 -1.7483444 10.66845956 -1.60546875 14.67578125 C-0.46132429 19.06781965 2.76341067 21.96982581 6 25 C5.67 25.66 5.34 26.32 5 27 C1.56188206 26.71349017 0.25828807 26.26566773 -2.1875 23.75 C-5.92819413 18.07446408 -7.13490368 12.77604258 -6 6 C-3.5625 2.9375 -3.5625 2.9375 -1 1 C-0.67 0.67 -0.34 0.34 0 0 Z " fill="#F0EFEE" transform="translate(579,561)"/>
<path d="M0 0 C7.59 0 15.18 0 23 0 C23 1.65 23 3.3 23 5 C15.41 5 7.82 5 0 5 C0 3.35 0 1.7 0 0 Z " fill="#FDFDFD" transform="translate(771,525)"/>
<path d="M0 0 C7.59 0 15.18 0 23 0 C23 1.65 23 3.3 23 5 C15.41 5 7.82 5 0 5 C0 3.35 0 1.7 0 0 Z " fill="#FCFCFC" transform="translate(327,525)"/>
<path d="M0 0 C0.66 0 1.32 0 2 0 C2 7.59 2 15.18 2 23 C1.67 22.01 1.34 21.02 1 20 C-0.65 20 -2.3 20 -4 20 C-4 14.39 -4 8.78 -4 3 C-2.68 3 -1.36 3 0 3 C0 2.01 0 1.02 0 0 Z " fill="#121113" transform="translate(779,565)"/>
<path d="M0 0 C1.65 0 3.3 0 5 0 C5 7.59 5 15.18 5 23 C3.35 23 1.7 23 0 23 C0 15.41 0 7.82 0 0 Z " fill="#0A090A" transform="translate(406,565)"/>
<path d="M0 0 C1.32 0 2.64 0 4 0 C4.33 6.27 4.66 12.54 5 19 C7.475 19.99 7.475 19.99 10 21 C10 21.66 10 22.32 10 23 C3.51515671 23.3670666 3.51515671 23.3670666 1.2878418 21.7800293 C-0.37442495 19.48247728 -0.34679997 18.14919865 -0.29296875 15.33203125 C-0.28330078 14.43935547 -0.27363281 13.54667969 -0.26367188 12.62695312 C-0.23853516 11.69818359 -0.21339844 10.76941406 -0.1875 9.8125 C-0.17396484 8.87212891 -0.16042969 7.93175781 -0.14648438 6.96289062 C-0.11113096 4.64134962 -0.06178674 2.32096347 0 0 Z " fill="#EBE8E1" transform="translate(607,565)"/>
<path d="M0 0 C15.84 0 31.68 0 48 0 C47.67 0.66 47.34 1.32 47 2 C31.16 2.33 15.32 2.66 -1 3 C-0.67 2.01 -0.34 1.02 0 0 Z " fill="#101010" transform="translate(794,532)"/>
<path d="M0 0 C0.33 0 0.66 0 1 0 C1 27.06 1 54.12 1 82 C0.67 82 0.34 82 0 82 C-0.0154612 80.79849808 -0.0154612 80.79849808 -0.03123474 79.57272339 C-0.12936245 72.01042381 -0.23189805 64.44820273 -0.33933926 56.8860302 C-0.39441661 52.99859207 -0.44781153 49.11114624 -0.49731445 45.22363281 C-0.54518303 41.46938972 -0.59753249 37.71523302 -0.65294075 33.9610939 C-0.67326284 32.53145637 -0.691992 31.10179524 -0.70907402 29.67211533 C-0.73334396 27.66400389 -0.76389091 25.65597132 -0.79467773 23.64794922 C-0.81022202 22.50655487 -0.8257663 21.36516052 -0.84178162 20.18917847 C-0.99726358 17.05515745 -1.48046747 14.09038059 -2 11 C-1.66015625 8.0078125 -1.66015625 8.0078125 -1.0625 5.125 C-0.86785156 4.15820312 -0.67320312 3.19140625 -0.47265625 2.1953125 C-0.31667969 1.47085937 -0.16070313 0.74640625 0 0 Z " fill="#2A211E" transform="translate(634,420)"/>
<path d="M0 0 C1.32 0 2.64 0 4 0 C4 7.59 4 15.18 4 23 C2.68 23 1.36 23 0 23 C0 15.41 0 7.82 0 0 Z " fill="#F7F6F1" transform="translate(782,565)"/>
<path d="M0 0 C5.28 0 10.56 0 16 0 C15 4 15 4 12.375 5.75 C8.63585452 7.1348687 5.95621016 7.38040482 2 7 C1.34 6.34 0.68 5.68 0 5 C0 3.35 0 1.7 0 0 Z " fill="#0F0D0E" transform="translate(817,578)"/>
<path d="M0 0 C0.33 0 0.66 0 1 0 C1.33 1.65 1.66 3.3 2 5 C2.33 5 2.66 5 3 5 C3.13277344 5.75925781 3.26554688 6.51851562 3.40234375 7.30078125 C3.57894531 8.29464844 3.75554688 9.28851562 3.9375 10.3125 C4.11152344 11.29863281 4.28554688 12.28476562 4.46484375 13.30078125 C4.95746847 16.08189213 4.95746847 16.08189213 6 19 C5.01 19 4.02 19 3 19 C3 22.63 3 26.26 3 30 C2.01 30 1.02 30 0 30 C0 20.1 0 10.2 0 0 Z " fill="#FAF9F6" transform="translate(708,567)"/>
<path d="M0 0 C3.96 0 7.92 0 12 0 C12 0.33 12 0.66 12 1 C10.9275 1.12375 9.855 1.2475 8.75 1.375 C5.62136385 1.89643936 3.66519576 2.40088254 1 4 C1.33 4.66 1.66 5.32 2 6 C2.33 10.29 2.66 14.58 3 19 C12.57 19 22.14 19 32 19 C32 19.33 32 19.66 32 20 C21.44 20 10.88 20 0 20 C0 13.4 0 6.8 0 0 Z " fill="#0F1A25" transform="translate(650,434)"/>
<path d="M0 0 C1.32 0.33 2.64 0.66 4 1 C4 8.26 4 15.52 4 23 C3.01 23 2.02 23 1 23 C-0.2263757 20.54724859 -0.11415314 18.9494219 -0.09765625 16.2109375 C-0.09443359 15.26992188 -0.09121094 14.32890625 -0.08789062 13.359375 C-0.07951172 12.37453125 -0.07113281 11.3896875 -0.0625 10.375 C-0.05798828 9.38242187 -0.05347656 8.38984375 -0.04882812 7.3671875 C-0.03702145 4.9113984 -0.020554 2.45572896 0 0 Z " fill="#0E0E0F" transform="translate(626,565)"/>
<path d="M0 0 C7.26 0 14.52 0 22 0 C22.33 2.31 22.66 4.62 23 7 C22.34 7 21.68 7 21 7 C20.34 6.34 19.68 5.68 19 5 C17.07098859 4.54025497 17.07098859 4.54025497 14.8671875 4.3671875 C14.06152344 4.28339844 13.25585938 4.19960938 12.42578125 4.11328125 C11.58402344 4.03464844 10.74226563 3.95601563 9.875 3.875 C8.60076172 3.74544922 8.60076172 3.74544922 7.30078125 3.61328125 C5.20130273 3.40097443 3.10073758 3.19946397 1 3 C0.67 2.01 0.34 1.02 0 0 Z " fill="#08080A" transform="translate(375,393)"/>
<path d="M0 0 C1 2 2 4 3 6 C7.47427924 6.08948558 11.60563789 5.85743651 16 5 C14.9958588 7.7385669 14.33822766 8.81209575 11.75 10.25 C8.57614649 11.11559641 6.27522306 11.40940288 3 11 C0.17173389 9.24018998 -1.54014325 7.94845455 -3 4.9375 C-3 3 -3 3 -1.5625 1.25 C-1.046875 0.8375 -0.53125 0.425 0 0 Z " fill="#E6E5E4" transform="translate(507,578)"/>
<path d="M0 0 C0.66 0 1.32 0 2 0 C4.77089332 4.88981175 3.93280688 9.6764052 3 15 C2.67 15.66 2.34 16.32 2 17 C1.84479443 19.32273159 1.74980833 21.64959313 1.68359375 23.9765625 C1.6524221 25.00443375 1.6524221 25.00443375 1.62062073 26.05307007 C1.55519815 28.24361069 1.49627446 30.43427189 1.4375 32.625 C1.39430782 34.1093875 1.3506933 35.59376278 1.30664062 37.078125 C1.19952447 40.71862084 1.09823638 44.35925251 1 48 C0.67 48 0.34 48 0 48 C0 32.16 0 16.32 0 0 Z " fill="#192E37" transform="translate(344,454)"/>
<path d="M0 0 C0.33 0 0.66 0 1 0 C1.66 1.98 2.32 3.96 3 6 C7.16138263 6.08159574 10.9472484 5.98248524 15 5 C14.8125 6.875 14.8125 6.875 14 9 C10.3700466 11.07425909 7.12085464 11.58869352 3 11 C0.73170167 9.51708059 -1.02216094 7.88365624 -3 6 C-2.67 5.01 -2.34 4.02 -2 3 C-1.34 3 -0.68 3 0 3 C0 2.01 0 1.02 0 0 Z " fill="#E5E4E2" transform="translate(816,578)"/>
<path d="M0 0 C0.33 0 0.66 0 1 0 C1.66 3.63 2.32 7.26 3 11 C6.04275136 10.39144973 9.00645224 9.77610498 12 9 C11.125 12.875 11.125 12.875 10 14 C8.14712498 14.07226502 6.29166122 14.0838122 4.4375 14.0625 C3.42558594 14.05347656 2.41367187 14.04445313 1.37109375 14.03515625 C0.58863281 14.02355469 -0.19382812 14.01195312 -1 14 C-1 13.34 -1 12.68 -1 12 C-1.99 12 -2.98 12 -4 12 C-4 9 -4 9 -2 7 C-1.40929986 5.05396726 -1.40929986 5.05396726 -1 3 C-0.67 2.01 -0.34 1.02 0 0 Z " fill="#F6F5F2" transform="translate(475,574)"/>
<path d="M0 0 C0.33 0 0.66 0 1 0 C1 3.63 1 7.26 1 11 C7.6 11 14.2 11 21 11 C21 11.99 21 12.98 21 14 C14.07 14 7.14 14 0 14 C0 9.38 0 4.76 0 0 Z " fill="#FDFDFC" transform="translate(661,574)"/>
<path d="M0 0 C2.01822917 0.06510417 4.03645833 0.13020833 6.0546875 0.1953125 C6.2421875 3.0703125 6.2421875 3.0703125 6.0546875 6.1953125 C2.61361484 8.48936094 1.08628941 8.45824306 -2.9453125 8.1953125 C-3.9453125 7.1953125 -3.9453125 7.1953125 -4.1328125 4.7578125 C-3.90410521 1.63214619 -3.25878946 0.3271877 0 0 Z " fill="#1B1819" transform="translate(465.9453125,576.8046875)"/>
<path d="M0 0 C2.31 0.33 4.62 0.66 7 1 C6.7834375 1.9590625 6.7834375 1.9590625 6.5625 2.9375 C5.82763202 6.93844788 5.41418889 10.95504896 5 15 C4.67 15 4.34 15 4 15 C3.67 13.02 3.34 11.04 3 9 C2.67 9 2.34 9 2 9 C1.67 16.59 1.34 24.18 1 32 C0.67 32 0.34 32 0 32 C0 21.44 0 10.88 0 0 Z " fill="#CDC9C3" transform="translate(707,565)"/>
<path d="M0 0 C0.99 0.99 1.98 1.98 3 3 C2.01 4.485 2.01 4.485 1 6 C0.62435496 9.38934273 0.49413401 12.75786461 0.34375 16.1640625 C0.2303125 17.09992187 0.116875 18.03578125 0 19 C-0.66 19.33 -1.32 19.66 -2 20 C-4.53268185 15.25122153 -4.74017421 10.25007288 -4 5 C-2 1.875 -2 1.875 0 0 Z " fill="#F8F7F3" transform="translate(367,566)"/>
<path d="M0 0 C1.32 0 2.64 0 4 0 C4 0.66 4 1.32 4 2 C3.34 2 2.68 2 2 2 C2 3.98 2 5.96 2 8 C7.94 8 13.88 8 20 8 C20.66 9.65 21.32 11.3 22 13 C21.34 13 20.68 13 20 13 C20 12.01 20 11.02 20 10 C13.4 10 6.8 10 0 10 C0 6.7 0 3.4 0 0 Z " fill="#363334" transform="translate(662,575)"/>
<path d="M0 0 C3.90646163 0.52836842 5.40069158 2.15623762 7.8125 5.1875 C11.0097206 9.44592574 11.0097206 9.44592574 10.9375 13.5625 C10.628125 14.366875 10.31875 15.17125 10 16 C5.86876658 12.34544736 2.65954719 7.81378042 0 3 C0 2.01 0 1.02 0 0 Z " fill="#EAE9E6" transform="translate(338,558)"/>
<path d="M0 0 C9.57 0 19.14 0 29 0 C29 0.99 29 1.98 29 3 C27.78884521 2.99214478 27.78884521 2.99214478 26.55322266 2.98413086 C22.91048962 2.96340071 19.26776898 2.95035251 15.625 2.9375 C14.35398437 2.92912109 13.08296875 2.92074219 11.7734375 2.91210938 C10.56171875 2.90888672 9.35 2.90566406 8.1015625 2.90234375 C6.98088379 2.89710693 5.86020508 2.89187012 4.70556641 2.88647461 C2.03132657 2.81378534 2.03132657 2.81378534 0 4 C0 2.68 0 1.36 0 0 Z " fill="#332219" transform="translate(436,485)"/>
<path d="M0 0 C0.33 0 0.66 0 1 0 C1 5.28 1 10.56 1 16 C2.65 16.33 4.3 16.66 6 17 C6 17.66 6 18.32 6 19 C3.66705225 19.04241723 1.33297433 19.04092937 -1 19 C-2.91811433 17.08188567 -2.17438668 13.73410709 -2.1875 11.1875 C-2.20167969 9.94355469 -2.21585938 8.69960938 -2.23046875 7.41796875 C-2.01852668 4.27476006 -1.66475807 2.61228836 0 0 Z " fill="#FBFBF7" transform="translate(773,569)"/>
<path d="M0 0 C2.31 0.33 4.62 0.66 7 1 C7 2.65 7 4.3 7 6 C1.06 6.495 1.06 6.495 -5 7 C-5.33 6.01 -5.66 5.02 -6 4 C-4.68 4 -3.36 4 -2 4 C-1.34 2.68 -0.68 1.36 0 0 Z " fill="#171415" transform="translate(465,568)"/>
<path d="M0 0 C3.125 0.25 3.125 0.25 5 1.5625 C6.125 3.25 6.125 3.25 6.125 6.25 C2.495 6.25 -1.135 6.25 -4.875 6.25 C-3.68915929 0.32079646 -3.68915929 0.32079646 0 0 Z " fill="#0B0808" transform="translate(821.875,567.75)"/>
<path d="M0 0 C3.125 0.25 3.125 0.25 5 1.5625 C6.125 3.25 6.125 3.25 6.125 6.25 C2.495 6.25 -1.135 6.25 -4.875 6.25 C-3.68915929 0.32079646 -3.68915929 0.32079646 0 0 Z " fill="#1D1A1A" transform="translate(740.875,567.75)"/>
<path d="M0 0 C3.625 0.375 3.625 0.375 7 1 C7.33 2.65 7.66 4.3 8 6 C4.37 6 0.74 6 -3 6 C-2 2 -2 2 0 0 Z " fill="#1A1818" transform="translate(511,568)"/>
<path d="M0 0 C0.33 0 0.66 0 1 0 C1.02505615 1.11036621 1.0501123 2.22073242 1.07592773 3.36474609 C1.16994915 7.47603319 1.27018257 11.58714923 1.37231445 15.69824219 C1.4156833 17.47912603 1.45735694 19.26005198 1.49731445 21.04101562 C1.5549699 23.59778548 1.6186777 26.15434298 1.68359375 28.7109375 C1.70030624 29.50994476 1.71701874 30.30895203 1.73423767 31.13217163 C1.75392991 35.19806368 1.75392991 35.19806368 3 39 C3.06996014 40.70702735 3.08440154 42.41668003 3.0625 44.125 C3.05347656 45.03507813 3.04445313 45.94515625 3.03515625 46.8828125 C3.02355469 47.58148437 3.01195313 48.28015625 3 49 C2.67 49 2.34 49 2 49 C0.33521028 42.69766603 -0.27635957 36.87601061 -0.1953125 30.37109375 C-0.1924826 29.49598648 -0.18965271 28.62087921 -0.18673706 27.71925354 C-0.17565394 24.95852245 -0.15057257 22.19813095 -0.125 19.4375 C-0.11495482 17.55143702 -0.10583168 15.66536889 -0.09765625 13.77929688 C-0.07575368 9.18606957 -0.04130764 4.59309211 0 0 Z " fill="#18232C" transform="translate(101,494)"/>
<path d="M0 0 C0.78246094 -0.02578125 1.56492187 -0.0515625 2.37109375 -0.078125 C5.04181509 0.32176911 5.88227439 1.19699122 7.5625 3.25 C4.91346247 3.85549429 2.6012632 4.25090147 -0.125 4.1875 C-2.63610219 3.99010576 -2.63610219 3.99010576 -4.4375 6.25 C-5.7575 6.25 -7.0775 6.25 -8.4375 6.25 C-6.57623854 1.06505736 -5.47464756 0.10787483 0 0 Z " fill="#F1F0EB" transform="translate(467.4375,564.75)"/>
<path d="M0 0 C1.60294922 0.01353516 1.60294922 0.01353516 3.23828125 0.02734375 C4.04652344 0.03894531 4.85476562 0.05054688 5.6875 0.0625 C5.6875 0.3925 5.6875 0.7225 5.6875 1.0625 C5.02105469 1.14886719 4.35460937 1.23523438 3.66796875 1.32421875 C-2.83564471 2.3156787 -8.20651573 4.11462258 -14.09765625 7.0390625 C-16.3125 8.0625 -16.3125 8.0625 -18.3125 8.0625 C-18.3125 7.0725 -18.3125 6.0825 -18.3125 5.0625 C-11.96323953 1.2031456 -7.52508213 -0.08269321 0 0 Z " fill="#3E3A3B" transform="translate(190.3125,349.9375)"/>
<path d="M0 0 C0.66 0.309375 1.32 0.61875 2 0.9375 C5.70476015 2.24960255 9.09263991 2.60264135 13 3 C12.67 4.32 12.34 5.64 12 7 C4.72727273 7.36363636 4.72727273 7.36363636 1.5 5.75 C0 4 0 4 0 0 Z " fill="#D9D7D5" transform="translate(791,582)"/>
<path d="M0 0 C0.33 0 0.66 0 1 0 C1 11.88 1 23.76 1 36 C3.97 35.505 3.97 35.505 7 35 C5.1875 37 5.1875 37 3 39 C2.01 39 1.02 39 0 39 C0 26.13 0 13.26 0 0 Z " fill="#EA5F04" transform="translate(239,520)"/>
<path d="M0 0 C0.33 0 0.66 0 1 0 C1.33 1.65 1.66 3.3 2 5 C2.33 5 2.66 5 3 5 C3 11.93 3 18.86 3 26 C2.01 26 1.02 26 0 26 C0 17.42 0 8.84 0 0 Z " fill="#FDFCFA" transform="translate(446,562)"/>
<path d="M0 0 C1.12921875 0.09796875 2.2584375 0.1959375 3.421875 0.296875 C4.54078125 0.38453125 5.6596875 0.4721875 6.8125 0.5625 C10.13304197 1.04127582 13.03145197 1.88587012 16.171875 3.046875 C16.171875 3.376875 16.171875 3.706875 16.171875 4.046875 C13.79656106 4.1012715 11.42251617 4.14073364 9.046875 4.171875 C8.38171875 4.18863281 7.7165625 4.20539063 7.03125 4.22265625 C2.67671444 4.26534778 -0.78412614 3.64683717 -4.828125 2.046875 C-2.828125 0.046875 -2.828125 0.046875 0 0 Z " fill="#1A242F" transform="translate(274.828125,369.953125)"/>
<path d="M0 0 C4.16281102 -0.00699632 6.43929665 0.08313124 10.07421875 2.30859375 C12.01171875 4.43359375 12.01171875 4.43359375 12.01171875 6.43359375 C7.13671875 5.55859375 7.13671875 5.55859375 6.01171875 4.43359375 C4.32987927 4.20072367 2.64047715 4.02095209 0.94921875 3.87109375 C-0.42943359 3.74541016 -0.42943359 3.74541016 -1.8359375 3.6171875 C-2.90134766 3.52630859 -2.90134766 3.52630859 -3.98828125 3.43359375 C-1.98828125 0.43359375 -1.98828125 0.43359375 0 0 Z " fill="#EFEEE9" transform="translate(737.98828125,564.56640625)"/>
<path d="M0 0 C1.32 0 2.64 0 4 0 C2.63016497 3.16115776 2.0109362 3.9927092 -1 6 C-3.04296875 6.1953125 -3.04296875 6.1953125 -5.1875 6.125 C-7.0746875 6.063125 -7.0746875 6.063125 -9 6 C-8.67 4.68 -8.34 3.36 -8 2 C-6.865625 1.855625 -5.73125 1.71125 -4.5625 1.5625 C-1.19222799 1.38828522 -1.19222799 1.38828522 0 0 Z " fill="#D6D4D1" transform="translate(746,583)"/>
<path d="M0 0 C1.32 0 2.64 0 4 0 C4 7.59 4 15.18 4 23 C3.67 23 3.34 23 3 23 C2.67 21.02 2.34 19.04 2 17 C1.67 17 1.34 17 1 17 C0.67 11.39 0.34 5.78 0 0 Z " fill="#D0CDCB" transform="translate(402,565)"/>
<path d="M0 0 C0.33 0 0.66 0 1 0 C1 10.56 1 21.12 1 32 C0.67 32 0.34 32 0 32 C-0.06058594 30.98679687 -0.12117187 29.97359375 -0.18359375 28.9296875 C-0.26806704 27.57811486 -0.35271157 26.22655291 -0.4375 24.875 C-0.47681641 24.20984375 -0.51613281 23.5446875 -0.55664062 22.859375 C-0.75071009 19.81397721 -1.02373637 16.87507176 -1.59375 13.875 C-2.04529541 10.67944785 -1.71548463 8.27469054 -1.0625 5.125 C-0.86785156 4.15820312 -0.67320312 3.19140625 -0.47265625 2.1953125 C-0.31667969 1.47085937 -0.16070313 0.74640625 0 0 Z " fill="#221B19" transform="translate(634,420)"/>
<path d="M0 0 C1.60294922 0.16628906 1.60294922 0.16628906 3.23828125 0.3359375 C4.04652344 0.43132812 4.85476563 0.52671875 5.6875 0.625 C5.6875 0.955 5.6875 1.285 5.6875 1.625 C4.99785156 1.65078125 4.30820312 1.6765625 3.59765625 1.703125 C-4.70595033 2.2043029 -11.90257476 4.05115196 -18.3125 9.625 C-18.3125 8.635 -18.3125 7.645 -18.3125 6.625 C-17.6525 6.625 -16.9925 6.625 -16.3125 6.625 C-16.3125 5.965 -16.3125 5.305 -16.3125 4.625 C-15.673125 4.50125 -15.03375 4.3775 -14.375 4.25 C-13.694375 4.04375 -13.01375 3.8375 -12.3125 3.625 C-11.9825 2.965 -11.6525 2.305 -11.3125 1.625 C-7.35202884 -0.47297932 -4.4008091 -0.4836054 0 0 Z " fill="#31343D" transform="translate(800.3125,417.375)"/>
<path d="M0 0 C0.66 0.66 1.32 1.32 2 2 C1.625 5.125 1.625 5.125 1 8 C1.66 8 2.32 8 3 8 C3 8.66 3 9.32 3 10 C0.36 10 -2.28 10 -5 10 C-4.49380917 6.25418786 -3.84235245 4.48705839 -1 2 C-0.67 1.34 -0.34 0.68 0 0 Z " fill="#191917" transform="translate(385,374)"/>
<path d="M0 0 C0.66 0 1.32 0 2 0 C2.33 1.32 2.66 2.64 3 4 C5.64 4.33 8.28 4.66 11 5 C10.34 6.32 9.68 7.64 9 9 C3.375 9.25 3.375 9.25 0 7 C-0.1875 3.375 -0.1875 3.375 0 0 Z " fill="#E2E0DE" transform="translate(366,580)"/>
<path d="M0 0 C0.33 0 0.66 0 1 0 C1.33 4.95 1.66 9.9 2 15 C4.475 15.99 4.475 15.99 7 17 C7 17.66 7 18.32 7 19 C3.625 19.125 3.625 19.125 0 19 C-2 17 -2 17 -2.125 14.375 C-2.08375 13.59125 -2.0425 12.8075 -2 12 C-1.67 12 -1.34 12 -1 12 C-0.67 8.04 -0.34 4.08 0 0 Z " fill="#FBFAF8" transform="translate(610,569)"/>
<path d="M0 0 C5.39449293 -0.27429625 8.51925805 -0.36055646 13 3 C12.34 4.98 11.68 6.96 11 9 C10.76539063 8.37609375 10.53078125 7.7521875 10.2890625 7.109375 C8.63176925 4.39744059 7.3858401 4.11024003 4.375 3.25 C3.55773437 3.00765625 2.74046875 2.7653125 1.8984375 2.515625 C1.27195312 2.34546875 0.64546875 2.1753125 0 2 C0 1.34 0 0.68 0 0 Z " fill="#EAE8E4" transform="translate(509,565)"/>
<path d="M0 0 C0.99 0.33 1.98 0.66 3 1 C5.56634861 1.22718496 8.11678107 1.41608184 10.6875 1.5625 C11.38939453 1.60568359 12.09128906 1.64886719 12.81445312 1.69335938 C14.54275206 1.7991736 16.2713511 1.90006581 18 2 C18 2.33 18 2.66 18 3 C6.45 3 -5.1 3 -17 3 C-17 2.67 -17 2.34 -17 2 C-15.85660156 1.93941406 -14.71320313 1.87882812 -13.53515625 1.81640625 C-12.04425695 1.73201572 -10.55337225 1.64736698 -9.0625 1.5625 C-8.30775391 1.52318359 -7.55300781 1.48386719 -6.77539062 1.44335938 C-3.08055813 1.55961976 -3.08055813 1.55961976 0 0 Z " fill="#131110" transform="translate(350,348)"/>
<path d="M0 0 C0.33 0 0.66 0 1 0 C1.33 10.23 1.66 20.46 2 31 C2.66 31 3.32 31 4 31 C4.33 31.99 4.66 32.98 5 34 C3.35 33.34 1.7 32.68 0 32 C0 21.44 0 10.88 0 0 Z " fill="#9F4503" transform="translate(184,552)"/>
<path d="M0 0 C7.39954511 -0.36391205 7.39954511 -0.36391205 10.0625 1.25 C11 3 11 3 10.6875 5.1875 C10.3471875 6.0846875 10.3471875 6.0846875 10 7 C9.34 7 8.68 7 8 7 C7.34 6.01 6.68 5.02 6 4 C2.91634129 3.7497843 2.91634129 3.7497843 0 4 C0 2.68 0 1.36 0 0 Z " fill="#EDECE5" transform="translate(714,565)"/>
<path d="M0 0 C0.99 0.33 1.98 0.66 3 1 C2.67 9.58 2.34 18.16 2 27 C1.67 27 1.34 27 1 27 C0.30962574 17.97582223 -0.15178302 9.05638678 0 0 Z " fill="#121C2D" transform="translate(718,475)"/>
<path d="M0 0 C0.99 0.495 0.99 0.495 2 1 C3.05551517 5.01095763 3.32669213 8.0199236 2 12 C1.92026524 13.33525717 1.89228662 14.67412083 1.90234375 16.01171875 C1.90556641 16.76904297 1.90878906 17.52636719 1.91210938 18.30664062 C1.92048828 19.09232422 1.92886719 19.87800781 1.9375 20.6875 C1.94201172 21.48478516 1.94652344 22.28207031 1.95117188 23.10351562 C1.9629415 25.06904257 1.98087652 27.03453085 2 29 C1.67 29 1.34 29 1 29 C0.07027443 19.30429046 -0.11237377 9.72657452 0 0 Z " fill="#0F1117" transform="translate(141,465)"/>
<path d="M0 0 C4.54805635 -0.17835515 7.8794254 0.00214565 12 2 C12 2.66 12 3.32 12 4 C13.32 4 14.64 4 16 4 C16 4.66 16 5.32 16 6 C17.98 6 19.96 6 22 6 C22 6.99 22 7.98 22 9 C20.41375765 8.57316761 18.8310902 8.13303842 17.25 7.6875 C16.36828125 7.44386719 15.4865625 7.20023437 14.578125 6.94921875 C11.92274519 5.97155618 10.2375149 4.69618065 8 3 C5.88735364 2.23318275 5.88735364 2.23318275 3.75 1.8125 C2.5125 1.544375 1.275 1.27625 0 1 C0 0.67 0 0.34 0 0 Z " fill="#192530" transform="translate(191,383)"/>
<path d="M0 0 C0.99 0.33 1.98 0.66 3 1 C3 1.66 3 2.32 3 3 C3.33 3.33 3.66 3.66 4 4 C4.07226502 5.85287502 4.0838122 7.70833878 4.0625 9.5625 C4.05347656 10.57441406 4.04445313 11.58632813 4.03515625 12.62890625 C4.02355469 13.41136719 4.01195312 14.19382812 4 15 C3.01 15 2.02 15 1 15 C0.67 10.05 0.34 5.1 0 0 Z " fill="#F8F6F4" transform="translate(348,573)"/>
<path d="M0 0 C1.32 0 2.64 0 4 0 C4 2.97 4 5.94 4 9 C2.02 9.99 2.02 9.99 0 11 C0.020625 10.0925 0.04125 9.185 0.0625 8.25 C0.01073123 5.5580237 -0.33569365 3.56232449 -1 1 C-0.67 0.67 -0.34 0.34 0 0 Z " fill="#D8D6D3" transform="translate(843,558)"/>
<path d="M0 0 C0.99 0 1.98 0 3 0 C3 3.3 3 6.6 3 10 C1.35 10 -0.3 10 -2 10 C-2.25 3.375 -2.25 3.375 0 0 Z " fill="#EFEDE9" transform="translate(325,558)"/>
<path d="M0 0 C0.33 0 0.66 0 1 0 C1 3.63 1 7.26 1 11 C0.01 11.495 0.01 11.495 -1 12 C-1.33 10.68 -1.66 9.36 -2 8 C-3.32 8.99 -4.64 9.98 -6 11 C-4.74527195 6.50389116 -3.1520343 3.45706988 0 0 Z " fill="#151216" transform="translate(389,453)"/>
<path d="M0 0 C2.31 0 4.62 0 7 0 C7.33 2.31 7.66 4.62 8 7 C7.34 7 6.68 7 6 7 C5.34 6.34 4.68 5.68 4 5 C1.67724823 4.59952556 -0.65739357 4.2602896 -3 4 C-2.01 3.67 -1.02 3.34 0 3 C0 2.01 0 1.02 0 0 Z " fill="#131415" transform="translate(390,393)"/>
<path d="M0 0 C0.33 1.32 0.66 2.64 1 4 C-5.75 3.125 -5.75 3.125 -8 2 C-8 5.3 -8 8.6 -8 12 C-8.33 12 -8.66 12 -9 12 C-9 8.37 -9 4.74 -9 1 C-5.8035914 -0.06546953 -3.34252724 -0.07427838 0 0 Z " fill="#C6C3BE" transform="translate(720,585)"/>
<path d="M0 0 C1.32 0.33 2.64 0.66 4 1 C4 3.64 4 6.28 4 9 C2.02 9.99 2.02 9.99 0 11 C0 7.37 0 3.74 0 0 Z " fill="#E8E4DF" transform="translate(551,583)"/>
<path d="M0 0 C0 4.29 0 8.58 0 13 C-0.99 13.33 -1.98 13.66 -3 14 C-3 9.71 -3 5.42 -3 1 C-1 0 -1 0 0 0 Z " fill="#08080A" transform="translate(606,566)"/>
<path d="M0 0 C3.25543229 0.34879632 4.01873107 1.02133261 6.25 3.5625 C6.8275 4.366875 7.405 5.17125 8 6 C7.34 7.32 6.68 8.64 6 10 C5.38125 9.21625 4.7625 8.4325 4.125 7.625 C2.10141339 5.03162353 2.10141339 5.03162353 0 3 C0 2.01 0 1.02 0 0 Z " fill="#E8E7E2" transform="translate(685,565)"/>
<path d="M0 0 C0.66 0 1.32 0 2 0 C4.80396138 4.94816714 3.77350507 9.61682285 3 15 C2.67 15 2.34 15 2 15 C2 13.35 2 11.7 2 10 C1.34 10 0.68 10 0 10 C0 6.7 0 3.4 0 0 Z " fill="#091F2E" transform="translate(344,454)"/>
<path d="M0 0 C2.68777802 -0.0544207 5.37443212 -0.09387266 8.0625 -0.125 C8.81466797 -0.14175781 9.56683594 -0.15851563 10.34179688 -0.17578125 C15.29327709 -0.21865121 19.30414451 0.41600625 24 2 C24 2.33 24 2.66 24 3 C20.37 3 16.74 3 13 3 C13 2.34 13 1.68 13 1 C8.71 1 4.42 1 0 1 C0 0.67 0 0.34 0 0 Z " fill="#F68A15" transform="translate(515,419)"/>
<path d="M0 0 C0.99 0 1.98 0 3 0 C3 3.3 3 6.6 3 10 C1.68 10 0.36 10 -1 10 C-1.02689216 8.52093108 -1.04634621 7.04172517 -1.0625 5.5625 C-1.07410156 4.73878906 -1.08570313 3.91507813 -1.09765625 3.06640625 C-1 1 -1 1 0 0 Z " fill="#EBE8E2" transform="translate(332,558)"/>
<path d="M0 0 C1.32 0.33 2.64 0.66 4 1 C4.25 7.625 4.25 7.625 2 11 C1.34 11 0.68 11 0 11 C0 7.37 0 3.74 0 0 Z " fill="#E5E2DD" transform="translate(836,558)"/>
<path d="M0 0 C0.33 1.32 0.66 2.64 1 4 C-8.57 4 -18.14 4 -28 4 C-28 3.67 -28 3.34 -28 3 C-26.83428467 2.970271 -26.83428467 2.970271 -25.64501953 2.93994141 C-22.13799309 2.84492991 -18.63158206 2.73515441 -15.125 2.625 C-13.90167969 2.5940625 -12.67835938 2.563125 -11.41796875 2.53125 C-10.25136719 2.49257813 -9.08476563 2.45390625 -7.8828125 2.4140625 C-6.26463623 2.36693115 -6.26463623 2.36693115 -4.61376953 2.31884766 C-1.84238346 2.25323678 -1.84238346 2.25323678 0 0 Z " fill="#FE8803" transform="translate(684,429)"/>
<path d="M0 0 C4.92127034 -0.16682272 8.50343896 -0.24828052 13 2 C12.01 2.33 11.02 2.66 10 3 C9.67 3.66 9.34 4.32 9 5 C8.67 4.67 8.34 4.34 8 4 C5.67182036 3.63239269 3.3381615 3.29758419 1 3 C0.67 2.01 0.34 1.02 0 0 Z " fill="#ECEAE2" transform="translate(368,565)"/>
<path d="M0 0 C1.75 0.0625 1.75 0.0625 4 1 C5.59501537 3.24164322 6.74543018 5.53566643 8 8 C6.68 8.33 5.36 8.66 4 9 C0 3.375 0 3.375 0 0 Z " fill="#E9E7E1" transform="translate(482,565)"/>
<path d="M0 0 C1.58246707 -0.08153933 3.16616273 -0.13943557 4.75 -0.1875 C6.07257812 -0.23970703 6.07257812 -0.23970703 7.421875 -0.29296875 C10.44671583 0.05076316 11.75583602 1.00227459 14 3 C13.67 4.32 13.34 5.64 13 7 C10.5 5.625 10.5 5.625 8 4 C8 3.34 8 2.68 8 2 C5.36 1.67 2.72 1.34 0 1 C0 0.67 0 0.34 0 0 Z " fill="#E2E0DC" transform="translate(794,565)"/>
<path d="M0 0 C-1.70192385 0.9902653 -3.41188011 1.96673206 -5.125 2.9375 C-6.07632813 3.48277344 -7.02765625 4.02804687 -8.0078125 4.58984375 C-11.06256432 6.02948527 -13.66134387 6.60867384 -17 7 C-14.26256906 4.88471245 -11.4900729 2.99079587 -8.5 1.25 C-7.7471875 0.80140625 -6.994375 0.3528125 -6.21875 -0.109375 C-3.65055105 -1.14027176 -2.54992963 -0.95042831 0 0 Z " fill="#321C16" transform="translate(219,613)"/>
<path d="M0 0 C0.99 0 1.98 0 3 0 C4.125 5.625 4.125 5.625 3 9 C2.01 9.33 1.02 9.66 0 10 C0 6.7 0 3.4 0 0 Z " fill="#FCFBF9" transform="translate(813,572)"/>
<path d="M0 0 C0.99 0 1.98 0 3 0 C3 3.3 3 6.6 3 10 C2.01 10 1.02 10 0 10 C-1.2380014 6.42355152 -0.74926071 3.66305234 0 0 Z " fill="#080809" transform="translate(384,574)"/>
<path d="M0 0 C1.32 0 2.64 0 4 0 C2.8141763 3.37503669 1.72426311 5.64722731 -1 8 C-1.66 7.01 -2.32 6.02 -3 5 C-1.75 2.5 -1.75 2.5 0 0 Z " fill="#E9E8E5" transform="translate(496,565)"/>
<path d="M0 0 C0 0.99 0 1.98 0 3 C-1.95803507 3.05389087 -3.91648909 3.09274217 -5.875 3.125 C-6.96554687 3.14820313 -8.05609375 3.17140625 -9.1796875 3.1953125 C-12 3 -12 3 -14 1 C-12.22932584 0.83165067 -10.45845388 0.66538091 -8.6875 0.5 C-7.70136719 0.4071875 -6.71523438 0.314375 -5.69921875 0.21875 C-3 0 -3 0 0 0 Z " fill="#F0EFEE" transform="translate(682,585)"/>
<path d="M0 0 C0.33 0.99 0.66 1.98 1 3 C1.66 3 2.32 3 3 3 C3 4.32 3 5.64 3 7 C2.34 7 1.68 7 1 7 C1 11.62 1 16.24 1 21 C0.67 21 0.34 21 0 21 C0 14.07 0 7.14 0 0 Z " fill="#0F1012" transform="translate(787,566)"/>
<path d="M0 0 C0.763125 0.0825 1.52625 0.165 2.3125 0.25 C2.3125 1.24 2.3125 2.23 2.3125 3.25 C0.0025 4.57 -2.3075 5.89 -4.6875 7.25 C-5.0175 6.26 -5.3475 5.27 -5.6875 4.25 C-4.12435347 1.21054842 -3.46963346 0.3227566 0 0 Z " fill="#E3E2DC" transform="translate(639.6875,564.75)"/>
<path d="M0 0 C0 0.99 0 1.98 0 3 C-3.13498292 4.85776765 -5.37471432 5.20140476 -9 5 C-9 4.34 -9 3.68 -9 3 C-8.34 3 -7.68 3 -7 3 C-7 2.34 -7 1.68 -7 1 C-2.25 0 -2.25 0 0 0 Z " fill="#DAD9D7" transform="translate(471,584)"/>
<path d="M0 0 C1.134375 0.020625 2.26875 0.04125 3.4375 0.0625 C3.4375 4.0225 3.4375 7.9825 3.4375 12.0625 C3.1075 12.0625 2.7775 12.0625 2.4375 12.0625 C2.4375 8.4325 2.4375 4.8025 2.4375 1.0625 C0.7875 1.7225 -0.8625 2.3825 -2.5625 3.0625 C-3.45636164 5.61025306 -3.45636164 5.61025306 -3.5625 8.0625 C-3.8925 8.0625 -4.2225 8.0625 -4.5625 8.0625 C-4.60491723 5.72955225 -4.60342937 3.39547433 -4.5625 1.0625 C-3.5625 0.0625 -3.5625 0.0625 0 0 Z " fill="#101012" transform="translate(765.5625,568.9375)"/>
<path d="M0 0 C0.66 0.33 1.32 0.66 2 1 C1.67 4.63 1.34 8.26 1 12 C-2 8 -2 8 -1.75 4.3125 C-1 1 -1 1 0 0 Z " fill="#1A1A1B" transform="translate(329,557)"/>
<path d="M0 0 C0.66 0.66 1.32 1.32 2 2 C4.43252661 2.46162427 4.43252661 2.46162427 7.125 2.625 C8.03507812 2.69976562 8.94515625 2.77453125 9.8828125 2.8515625 C10.58148438 2.90054687 11.28015625 2.94953125 12 3 C12 3.33 12 3.66 12 4 C11.39671875 4.03738281 10.7934375 4.07476562 10.171875 4.11328125 C4.00632228 4.56253341 4.00632228 4.56253341 -1 8 C-0.67 5.36 -0.34 2.72 0 0 Z " fill="#1E1F21" transform="translate(374,393)"/>
<path d="M0 0 C1.32 0 2.64 0 4 0 C7 3.21428571 7 3.21428571 7 6 C2.25 5.25 2.25 5.25 0 3 C0 2.01 0 1.02 0 0 Z " fill="#EDEBE7" transform="translate(697,582)"/>
<path d="M0 0 C1.98 0.66 3.96 1.32 6 2 C5.34 3.98 4.68 5.96 4 8 C3.34 7.01 2.68 6.02 2 5 C-0.05003955 3.80767387 -0.05003955 3.80767387 -2 3 C-1.34 2.01 -0.68 1.02 0 0 Z " fill="#E5E3E0" transform="translate(538,575)"/>
<path d="M0 0 C0.33 0 0.66 0 1 0 C2.73955334 6.43013467 3.24991456 12.34949576 3 19 C2.67 19 2.34 19 2 19 C0.26044666 12.56986533 -0.24991456 6.65050424 0 0 Z " fill="#333537" transform="translate(101,524)"/>
<path d="M0 0 C0.66 0.99 1.32 1.98 2 3 C1.125 5.6875 1.125 5.6875 0 8 C-1.32 8 -2.64 8 -4 8 C-2.87548273 5.0280615 -1.77706209 2.66559313 0 0 Z " fill="#1E2B33" transform="translate(164,454)"/>
<path d="M0 0 C1.32 0 2.64 0 4 0 C4 0.66 4 1.32 4 2 C5.32 2 6.64 2 8 2 C8 2.66 8 3.32 8 4 C8.99 4 9.98 4 11 4 C11.33 4.99 11.66 5.98 12 7 C7.39104317 5.68315519 3.85859765 3.84801255 0 1 C0 0.67 0 0.34 0 0 Z " fill="#273034" transform="translate(137,583)"/>
<path d="M0 0 C0.66 0 1.32 0 2 0 C2.99 1.98 3.98 3.96 5 6 C3.68 6.33 2.36 6.66 1 7 C0.67 6.01 0.34 5.02 0 4 C-0.66 3.67 -1.32 3.34 -2 3 C-1.34 2.01 -0.68 1.02 0 0 Z " fill="#E6E5DF" transform="translate(492,576)"/>
<path d="M0 0 C0.99 0.99 1.98 1.98 3 3 C1 6 1 6 -1.625 6.6875 C-2.800625 6.8421875 -2.800625 6.8421875 -4 7 C-2.92598892 4.08482708 -2.22189824 2.22189824 0 0 Z " fill="#F1F0ED" transform="translate(367,566)"/>
<path d="M0 0 C0.33 0 0.66 0 1 0 C1 2.97 1 5.94 1 9 C2.98 8.67 4.96 8.34 7 8 C5.1875 10 5.1875 10 3 12 C2.01 12 1.02 12 0 12 C0 8.04 0 4.08 0 0 Z " fill="#E25907" transform="translate(239,547)"/>
<path d="M0 0 C-2.26562673 2.26562673 -3.84160705 2.94462749 -7.04296875 3.09765625 C-7.75066406 3.08605469 -8.45835937 3.07445312 -9.1875 3.0625 C-11.0746875 3.0315625 -11.0746875 3.0315625 -13 3 C-9.21656826 -0.94792877 -5.07874402 -0.29300446 0 0 Z " fill="#192936" transform="translate(190,383)"/>
<path d="M0 0 C0.66 0 1.32 0 2 0 C2.125 3.375 2.125 3.375 2 7 C1.34 7.66 0.68 8.32 0 9 C-0.99 8.67 -1.98 8.34 -3 8 C-2.34 7.01 -1.68 6.02 -1 5 C-0.61500109 3.34450469 -0.27206865 1.6777567 0 0 Z " fill="#F6F5F4" transform="translate(543,578)"/>
<path d="M0 0 C0.99773437 0.02320313 1.99546875 0.04640625 3.0234375 0.0703125 C4.52777344 0.09738281 4.52777344 0.09738281 6.0625 0.125 C6.83335937 0.14820313 7.60421875 0.17140625 8.3984375 0.1953125 C8.3984375 0.5253125 8.3984375 0.8553125 8.3984375 1.1953125 C6.79983101 1.75317518 5.19425845 2.29110818 3.5859375 2.8203125 C2.69261719 3.12195313 1.79929687 3.42359375 0.87890625 3.734375 C-1.6015625 4.1953125 -1.6015625 4.1953125 -4.6015625 2.1953125 C-2.6015625 0.1953125 -2.6015625 0.1953125 0 0 Z " fill="#F8F8F7" transform="translate(463.6015625,574.8046875)"/>
<path d="M0 0 C3.97497544 3.40712181 5.86793788 7.32760855 8 12 C7.01 12.495 7.01 12.495 6 13 C4.99193149 11.40089132 3.99379615 9.79551738 3 8.1875 C2.443125 7.29417969 1.88625 6.40085937 1.3125 5.48046875 C0 3 0 3 0 0 Z " fill="#17212C" transform="translate(344,424)"/>
<path d="M0 0 C-2.88628401 1.57554035 -5.53342384 2.46276373 -8.75 3.125 C-9.94882813 3.37636719 -9.94882813 3.37636719 -11.171875 3.6328125 C-11.77515625 3.75398438 -12.3784375 3.87515625 -13 4 C-13 3.34 -13 2.68 -13 2 C-8.49646738 0.24252386 -4.82360189 -0.19294408 0 0 Z " fill="#222D38" transform="translate(162,394)"/>
<path d="M0 0 C0.99 0.99 1.98 1.98 3 3 C2.01 3.66 1.02 4.32 0 5 C-0.66 5.99 -1.32 6.98 -2 8 C-2.6875 5.6875 -2.6875 5.6875 -3 3 C-1.5625 1.1875 -1.5625 1.1875 0 0 Z " fill="#E5E4E2" transform="translate(530,566)"/>
<path d="M0 0 C0.66 0 1.32 0 2 0 C2.33 2.31 2.66 4.62 3 7 C2.67 6.34 2.34 5.68 2 5 C1.01 5 0.02 5 -1 5 C-1.33 5.99 -1.66 6.98 -2 8 C-1.125 1.125 -1.125 1.125 0 0 Z " fill="#2F201E" transform="translate(450,447)"/>
<path d="M0 0 C0.66 0.33 1.32 0.66 2 1 C0.87895467 2.31587941 -0.24696965 3.62760353 -1.375 4.9375 C-2.00148438 5.66839844 -2.62796875 6.39929688 -3.2734375 7.15234375 C-5 9 -5 9 -7 10 C-5.6062718 5.56541027 -3.39417765 3.12621626 0 0 Z " fill="#E57E1D" transform="translate(506,423)"/>
<path d="M0 0 C4.08718695 -0.24042276 7.17679443 0.57741188 11 2 C10.67 2.99 10.34 3.98 10 5 C6.08788267 3.84414715 3.1254959 2.64465038 0 0 Z " fill="#33383A" transform="translate(178,607)"/>
<path d="M0 0 C2.64 0 5.28 0 8 0 C7.67 0.99 7.34 1.98 7 3 C5.02 3 3.04 3 1 3 C0.67 2.01 0.34 1.02 0 0 Z " fill="#EFEEEA" transform="translate(509,565)"/>
<path d="M0 0 C4.75 0.75 4.75 0.75 7 3 C5.88625 3.309375 4.7725 3.61875 3.625 3.9375 C0.2054845 4.82326483 0.2054845 4.82326483 -2 6 C-1.34 4.02 -0.68 2.04 0 0 Z " fill="#E27811" transform="translate(498,483)"/>
<path d="M0 0 C1.5 1.125 1.5 1.125 3 3 C3.1875 6.1875 3.1875 6.1875 3 9 C2.01 8.67 1.02 8.34 0 8 C0 5.36 0 2.72 0 0 Z " fill="#091426" transform="translate(791,439)"/>
<path d="M0 0 C3.96 0 7.92 0 12 0 C12 0.33 12 0.66 12 1 C10.9275 1.12375 9.855 1.2475 8.75 1.375 C5.62136385 1.89643936 3.66519576 2.40088254 1 4 C0.67 2.68 0.34 1.36 0 0 Z " fill="#0B0D14" transform="translate(650,434)"/>
<path d="M0 0 C8.19256018 -0.4726477 8.19256018 -0.4726477 11.5625 1.5 C12.036875 1.995 12.51125 2.49 13 3 C12.67 3.66 12.34 4.32 12 5 C11.29875 4.525625 10.5975 4.05125 9.875 3.5625 C6.83918663 1.91260143 4.40831214 1.39631536 1 1 C0.67 1.66 0.34 2.32 0 3 C0 2.01 0 1.02 0 0 Z " fill="#EF8313" transform="translate(330,420)"/>
<path d="M0 0 C1.5625 1.75 1.5625 1.75 3 4 C2.73495121 7.00388632 2.16695725 7.83304275 0 10 C-0.95024979 6.30458414 -0.95024979 3.69541586 0 0 Z " fill="#1A191A" transform="translate(841,559)"/>
<path d="M0 0 C4.95 0.33 9.9 0.66 15 1 C15 1.33 15 1.66 15 2 C10.05 2.33 5.1 2.66 0 3 C0 2.01 0 1.02 0 0 Z " fill="#51443F" transform="translate(513,417)"/>
<path d="M0 0 C4.455 0.99 4.455 0.99 9 2 C8.67 2.66 8.34 3.32 8 4 C5.69 3.67 3.38 3.34 1 3 C0.67 2.01 0.34 1.02 0 0 Z " fill="#2A2A2B" transform="translate(218,392)"/>
<path d="M0 0 C1.98 0 3.96 0 6 0 C6.33 0.99 6.66 1.98 7 3 C4.69 3 2.38 3 0 3 C0 2.01 0 1.02 0 0 Z " fill="#F5F3EF" transform="translate(772,585)"/>
<path d="M0 0 C1.093125 0.226875 2.18625 0.45375 3.3125 0.6875 C1.6875 2.25 1.6875 2.25 -0.6875 3.6875 C-3.9375 3.375 -3.9375 3.375 -6.6875 2.6875 C-4.58035839 -0.41123767 -3.86755884 -0.32775922 0 0 Z " fill="#EBE9E5" transform="translate(800.6875,574.3125)"/>
<path d="M0 0 C1.32 0.66 2.64 1.32 4 2 C3.01 3.485 3.01 3.485 2 5 C0.68 5 -0.64 5 -2 5 C-1.34 3.35 -0.68 1.7 0 0 Z " fill="#E8E7E6" transform="translate(461,566)"/>
<path d="M0 0 C0.99 0 1.98 0 3 0 C2.67 1.98 2.34 3.96 2 6 C1.34 5.34 0.68 4.68 0 4 C-0.33 5.98 -0.66 7.96 -1 10 C-1.33 10 -1.66 10 -2 10 C-2.25 3.375 -2.25 3.375 0 0 Z " fill="#B8B2AE" transform="translate(325,558)"/>
<path d="M0 0 C-1.29299694 2.88437779 -2.65941363 4.87219421 -5 7 C-5.99 6.67 -6.98 6.34 -8 6 C-7.0479279 4.99403703 -6.08812654 3.99538437 -5.125 3 C-4.59132813 2.443125 -4.05765625 1.88625 -3.5078125 1.3125 C-2 0 -2 0 0 0 Z " fill="#F18013" transform="translate(788,423)"/>
<path d="M0 0 C4.455 0.99 4.455 0.99 9 2 C8.67 2.66 8.34 3.32 8 4 C5.36 3.67 2.72 3.34 0 3 C0 2.01 0 1.02 0 0 Z " fill="#2F2B2B" transform="translate(232,396)"/>
<path d="M0 0 C1.32 0 2.64 0 4 0 C3.34 1.32 2.68 2.64 2 4 C0.68 4 -0.64 4 -2 4 C-1.34 2.68 -0.68 1.36 0 0 Z " fill="#EBEAE7" transform="translate(746,583)"/>
<path d="M0 0 C2.475 0.99 2.475 0.99 5 2 C4.67 3.32 4.34 4.64 4 6 C2.68 5.34 1.36 4.68 0 4 C0 2.68 0 1.36 0 0 Z " fill="#E8E7E4" transform="translate(791,582)"/>
<path d="M0 0 C1.875 0.3125 1.875 0.3125 4 1 C4.66 1.99 5.32 2.98 6 4 C5.01 4 4.02 4 3 4 C2.67 4.66 2.34 5.32 2 6 C0 3 0 3 0 0 Z " fill="#E4E2DE" transform="translate(338,558)"/>
<path d="M0 0 C0.33 1.32 0.66 2.64 1 4 C-0.4375 6.25 -0.4375 6.25 -2 8 C-2.99 7.67 -3.98 7.34 -5 7 C-3.35 4.69 -1.7 2.38 0 0 Z " fill="#171A1E" transform="translate(536,480)"/>
<path d="M0 0 C3.375 -0.1875 3.375 -0.1875 7 0 C7.66 0.99 8.32 1.98 9 3 C6.03 2.67 3.06 2.34 0 2 C0 1.34 0 0.68 0 0 Z " fill="#2D2C2C" transform="translate(249,401)"/>
<path d="M0 0 C1.4540625 0.0309375 1.4540625 0.0309375 2.9375 0.0625 C0.27083333 2.0625 -2.39583333 4.0625 -5.0625 6.0625 C-3.98897059 0.08140756 -3.98897059 0.08140756 0 0 Z " fill="#3E3B3A" transform="translate(822.0625,567.9375)"/>
<path d="M0 0 C1.4540625 0.0309375 1.4540625 0.0309375 2.9375 0.0625 C2.9375 0.7225 2.9375 1.3825 2.9375 2.0625 C1.2875 2.0625 -0.3625 2.0625 -2.0625 2.0625 C-2.3925 3.0525 -2.7225 4.0425 -3.0625 5.0625 C-3.625 3.125 -3.625 3.125 -4.0625 1.0625 C-3.0625 0.0625 -3.0625 0.0625 0 0 Z " fill="#3E3B3A" transform="translate(799.0625,567.9375)"/>
<path d="M0 0 C1 2 1 2 0.5 3.875 C-0.06796534 6.28885269 0.25055468 7.66839233 1 10 C-0.80627247 8.42932829 -1.90943569 7.20700414 -2.875 5 C-3 3 -3 3 -1.5625 1.25 C-1.046875 0.8375 -0.53125 0.425 0 0 Z " fill="#0B1826" transform="translate(753,471)"/>
<path d="M0 0 C0.33 0.99 0.66 1.98 1 3 C1.99 3.33 2.98 3.66 4 4 C2.35 5.32 0.7 6.64 -1 8 C-1.125 2.25 -1.125 2.25 0 0 Z " fill="#EFEEEB" transform="translate(691,576)"/>
<path d="M0 0 C0.66 0.99 1.32 1.98 2 3 C0.7260411 5.03833424 -0.61061923 7.03852126 -2 9 C-2.66 9 -3.32 9 -4 9 C-2.80100302 5.9168649 -1.52299523 2.93720508 0 0 Z " fill="#272A28" transform="translate(169,445)"/>
<path d="M0 0 C3.3 0.33 6.6 0.66 10 1 C10 1.99 10 2.98 10 4 C6.7 3.01 3.4 2.02 0 1 C0 0.67 0 0.34 0 0 Z " fill="#363535" transform="translate(203,388)"/>
</svg>
